<svg width="32" height="32" viewBox="0 0 32 32" fill="none" xmlns="http://www.w3.org/2000/svg">
<g id="ambulance-cross 3">
<path id="Vector" d="M11.4592 8.61121C11.4048 8.61121 11.3248 8.51201 11.3056 8.44801C11.28 8.34881 11.2992 8.23681 11.2992 8.10561H11.9456C11.9712 7.94881 11.9936 7.81761 12.0096 7.68641C12.0736 7.19361 12.3488 6.86401 12.8128 6.68481C12.8864 6.65601 12.96 6.62401 13.0336 6.59201H13.4176C14.0576 6.78081 14.4512 7.17761 14.5056 7.85281L14.5344 8.10881H15.216V8.57601C15.1904 8.58881 15.1744 8.60481 15.1584 8.60481C13.9264 8.61121 12.6944 8.61441 11.4592 8.61121ZM21.4144 21.9968C20.976 23.3024 21.68 24.7424 23.0016 25.2288C23.2064 25.3024 23.4208 25.344 23.632 25.3984H24.2368C24.352 25.3696 24.464 25.3376 24.576 25.312C25.6768 25.0368 26.5024 24.0096 26.528 22.8864C26.5536 21.7216 25.7728 20.6496 24.672 20.3328C23.296 19.9328 21.8624 20.6688 21.4144 21.9968ZM22.6304 22.8416C22.624 22.144 23.2128 21.5552 23.9136 21.5616C24.592 21.568 25.1808 22.144 25.1808 22.8064C25.1808 23.4752 24.5984 24.0544 23.9232 24.0544C23.232 24.0576 22.6368 23.4976 22.6304 22.8416ZM6.0576 22.8192C6.0544 24.0128 6.8256 25.0112 7.9968 25.3312C8.0672 25.3504 8.1344 25.376 8.2048 25.3984H9.1936C9.6768 25.232 10.144 25.0496 10.5184 24.6816C11.36 23.8592 11.536 22.5824 10.9408 21.5488C10.352 20.5248 9.168 20.0352 8.0032 20.336C6.8704 20.6208 6.0576 21.664 6.0576 22.8192ZM7.3888 22.848C7.3952 22.1568 7.9744 21.5872 8.6656 21.5936C9.3696 21.5968 9.9392 22.1568 9.9392 22.8448C9.9392 23.5296 9.376 24.0544 8.64 24.0576C7.9744 24.0576 7.3856 23.488 7.3888 22.848ZM29.9712 15.7312C29.9648 13.936 29.9584 12.144 29.9488 10.3552C29.9488 9.77281 29.472 9.30241 28.8672 9.30241C27.6832 9.30241 26.4928 9.30881 25.2992 9.30881L7.84 9.33761C7.168 9.33761 6.7168 9.64161 6.4256 10.2112C6.2528 10.5568 6.0928 10.9184 5.9424 11.2704C5.408 12.544 4.8768 13.8176 4.3296 15.088C4.2752 15.2192 4.1696 15.3792 4.0512 15.4208C3.3376 15.6704 2.9696 16.1888 2.8192 16.8672C2.6176 17.7952 2.4448 18.736 2.272 19.6704C2.1696 20.2464 2.0832 20.8192 1.9936 21.3952V22.0448C2.1856 22.448 2.4704 22.752 2.9504 22.7712C3.6 22.8064 4.2528 22.8192 4.896 22.8352C5.1232 22.8416 5.2224 22.7392 5.2416 22.4896C5.3792 20.8416 6.8704 19.4784 8.5376 19.4432C10.3744 19.4016 11.856 20.6688 12.1056 22.4832C12.16 22.8416 12.16 22.8512 12.5344 22.8416C15.0624 22.8352 17.5904 22.8128 20.112 22.8128C20.3904 22.8128 20.464 22.7296 20.4864 22.4736C20.64 20.8928 22.032 19.5712 23.5808 19.4464C25.5552 19.2864 26.9472 20.6784 27.2736 22.0704C27.328 22.32 27.3696 22.576 27.4272 22.8736C28.0288 22.8384 28.6176 22.8192 29.2064 22.7712C29.4912 22.7488 29.6992 22.592 29.8368 22.3424C29.8784 22.2592 29.9392 22.1824 29.9968 22.0992V16.048C29.9936 15.9456 29.9712 15.8336 29.9712 15.7312ZM11.184 14.9536C11.1904 15.2032 11.1008 15.2576 10.864 15.2512C9.3696 15.2384 7.8656 15.2384 6.3616 15.2384C6.1344 15.232 5.8912 15.2384 5.6128 15.2384C5.648 15.1072 5.6544 15.0496 5.6768 15.0016L7.4624 10.6176C7.5328 10.4512 7.6352 10.4096 7.7952 10.416C8.8192 10.416 9.8464 10.4224 10.8704 10.4096C11.1136 10.4096 11.1904 10.4736 11.1808 10.7136C11.1776 12.128 11.1776 13.5424 11.184 14.9536ZM23.0336 15.536H20.5696V18.272C20.2592 18.336 19.9328 18.3616 19.6128 18.3616C19.2928 18.3616 18.9824 18.3328 18.672 18.272V15.536H16.1984C16.1344 15.232 16.1088 14.912 16.1088 14.5952C16.1088 14.2912 16.1376 13.9776 16.1984 13.6672H18.672V10.9312C18.9824 10.8672 19.3024 10.8416 19.6288 10.8416C19.9392 10.8416 20.2592 10.8704 20.5696 10.9312V13.6672H23.0336C23.0976 13.9776 23.1296 14.2912 23.1296 14.608C23.1296 14.9184 23.0944 15.232 23.0336 15.536Z" fill="black"/>
</g>
</svg>
