<svg width="32" height="32" viewBox="0 0 32 32" fill="none" xmlns="http://www.w3.org/2000/svg">
<g id="blood-drop 3">
<path id="Vector" d="M16.0192 0C16.4896 2.96 17.7344 5.6064 19.2384 8.1408C20.208 9.7728 21.2352 11.376 22.2272 12.9984C23.4976 15.0752 24.6944 17.1872 25.3216 19.568C26.5568 24.2496 24.512 28.9056 20.2976 30.992C14.4128 33.9104 7.3536 30.192 6.4288 23.6832C6.1152 21.4816 6.5984 19.408 7.456 17.392C8.5056 14.9216 9.9936 12.7008 11.4016 10.4352C12.8032 8.1792 14.1824 5.9104 15.1008 3.3984C15.5104 2.2944 15.7888 1.1584 16.0192 0ZM18.4736 29.2256C20.464 29.232 22.6144 27.2864 22.88 25.2384C23.1072 23.4944 21.9712 22.352 20.2432 22.5888C18.256 22.864 16.4128 24.8352 16.2624 26.8416C16.1632 28.2112 17.0976 29.2192 18.4736 29.2256ZM12.7776 16.0768C12.8064 15.0944 12.2048 14.608 11.4752 14.8896C10.6976 15.1936 10.128 16.2304 10.2976 17.0464C10.4416 17.7536 11.056 18.0608 11.696 17.7184C12.3968 17.3472 12.7136 16.72 12.7776 16.0768Z" fill="black"/>
</g>
</svg>
