<svg width="32" height="32" viewBox="0 0 32 32" fill="none" xmlns="http://www.w3.org/2000/svg">
<g id="bus-stop-ride-transit-transport-svgrepo-com 3">
<path id="_x33_" d="M28.675 22.5V6.44999C28.675 5.79999 28.15 5.27499 27.5 5.27499H11.75C11.1 5.27499 10.575 5.79999 10.575 6.44999V22.525C10.4 22.65 10.3 22.825 10.3 23.025V24.2C10.3 24.525 10.575 24.8 10.9 24.8H12.35V26.625C12.35 27.125 12.75 27.525 13.25 27.525H14.15C14.65 27.525 15.05 27.125 15.05 26.625V24.8H24.25V26.625C24.25 27.125 24.65 27.525 25.15 27.525H26.05C26.55 27.525 26.95 27.125 26.95 26.625V24.8H28.425C28.75 24.8 29.025 24.525 29.025 24.2V23.025C28.975 22.8 28.875 22.6 28.675 22.5ZM12.975 7.12499H26.3C26.625 7.12499 26.9 7.39999 26.9 7.72499V8.04999C26.9 8.37499 26.625 8.64999 26.3 8.64999H12.975C12.65 8.64999 12.375 8.37499 12.375 8.04999V7.72499C12.375 7.37499 12.65 7.12499 12.975 7.12499ZM13.65 22.05C12.875 22.05 12.275 21.425 12.275 20.675C12.275 19.925 12.925 19.325 13.65 19.325C14.375 19.325 15.025 19.95 15.025 20.7C15.025 21.45 14.4 22.05 13.65 22.05ZM12.375 16.9V10.45C12.375 10.125 12.65 9.84999 12.975 9.84999H26.275C26.6 9.84999 26.875 10.125 26.875 10.45V16.925C26.875 17.25 26.6 17.525 26.275 17.525H12.975C12.65 17.475 12.375 17.2 12.375 16.9ZM25.575 22.05C24.8 22.05 24.2 21.425 24.2 20.675C24.2 19.925 24.825 19.3 25.575 19.3C26.325 19.3 26.95 19.925 26.95 20.675C26.95 21.425 26.325 22.05 25.575 22.05Z" fill="black"/>
<path id="_x32__1_" d="M9.4 16.975H8.225C7.9 16.975 7.625 16.7 7.625 16.375V12.875C7.625 12.55 7.9 12.275 8.225 12.275H9.4C9.725 12.275 10 12.55 10 12.875V16.375C9.975 16.7 9.7 16.975 9.4 16.975Z" fill="black"/>
<path id="_x32_" d="M31.05 16.975H29.875C29.55 16.975 29.275 16.7 29.275 16.375V12.875C29.275 12.55 29.55 12.275 29.875 12.275H31.05C31.375 12.275 31.65 12.55 31.65 12.875V16.375C31.625 16.7 31.375 16.975 31.05 16.975Z" fill="black"/>
<path id="_x31__1_" d="M5.875 26.325H4.1V11.125H5.275C5.6 11.125 5.875 10.85 5.875 10.525V4.67501C5.875 4.35001 5.6 4.07501 5.275 4.07501H1.775C1.45 4.07501 1.175 4.35001 1.175 4.67501V10.525C1.175 10.85 1.45 11.125 1.775 11.125H2.95V26.35H1.175C0.849997 26.35 0.574997 26.625 0.574997 26.95C0.574997 27.275 0.849997 27.55 1.175 27.55H3.5C3.5 27.55 3.5 27.55 3.525 27.55C3.525 27.55 3.525 27.55 3.55 27.55H5.85C6.175 27.55 6.45 27.275 6.45 26.95C6.475 26.6 6.2 26.325 5.875 26.325Z" fill="black"/>
</g>
</svg>
