<svg width="32" height="32" viewBox="0 0 32 32" fill="none" xmlns="http://www.w3.org/2000/svg">
<g id="dental-review-svgrepo-com 3">
<g id="Group">
<g id="Group_2">
<path id="Vector" d="M9.84217 24.2607C10.5873 25.3329 11.2164 25.8322 11.8216 25.8322C12.0499 25.8322 12.612 25.7455 12.9028 24.9411C13.1425 24.2782 13.357 23.5212 13.584 22.7198C14.1365 20.7696 14.8932 18.0987 15.9621 18.0987H16.038C16.4981 18.0987 16.9246 18.5235 17.3418 19.3976C17.7801 20.3155 18.1163 21.5469 18.4414 22.738C18.6587 23.5342 18.8641 24.2863 19.0966 24.9385C19.3819 25.7392 19.9391 25.8259 20.1657 25.826C20.7687 25.826 21.3975 25.3191 22.144 24.2308C22.7372 23.3663 23.3615 22.1928 23.9497 20.8371C25.2694 17.7961 26.0572 14.7102 26.0572 12.5824C26.0572 11.0219 25.5046 9.5437 24.5009 8.41995C23.4424 7.23507 21.9856 6.58246 20.3988 6.58246C19.1526 6.58246 17.8341 7.30983 16.8711 7.84106C16.6136 7.98321 16.1457 8.24141 16.0003 8.28327C15.8535 8.24094 15.3889 7.98384 15.133 7.84217C14.1721 7.31054 12.8562 6.58246 11.6013 6.58246C10.0144 6.58246 8.55757 7.23507 7.49922 8.41995C6.49549 9.5437 5.94269 11.022 5.94269 12.5824C5.94269 14.7728 6.72658 17.882 8.03965 20.8994C8.62464 22.2433 9.24791 23.4056 9.84217 24.2607ZM11.6013 7.73745C12.3308 7.73745 13.2961 8.07406 14.1834 8.63788C14.3113 8.71922 14.4976 8.86247 14.6778 9.00105C14.7506 9.05694 14.8223 9.11204 14.8893 9.16246C15.1078 9.32608 15.4029 9.53997 15.7491 9.74356C15.9322 9.85177 16.099 9.94778 16.2865 10.0273C17.0408 10.3476 17.8405 10.5099 18.6633 10.5099C19.5046 10.5099 19.9314 10.4157 20.0913 10.3777C20.3911 10.3062 21.0932 10.1154 21.0795 10.0118C21.0673 9.92019 20.2944 9.96569 20.0333 9.9431C19.7305 9.91678 18.8033 9.85978 17.6893 9.56479C17.3549 9.47616 16.9019 9.29739 16.8815 9.19861C16.8661 9.12401 17.1895 8.9167 17.4356 8.76575C18.2976 8.23689 19.4499 7.73753 20.3988 7.73753C23.2179 7.73753 24.9025 10.201 24.9025 12.5826C24.9025 14.5307 24.1315 17.5176 22.8905 20.3777C22.3388 21.6489 21.7357 22.7854 21.1918 23.5777C20.6662 24.3438 20.3579 24.686 20.2237 24.6447C20.1983 24.6368 20.1647 24.6007 20.1508 24.5617C19.9341 23.9537 19.7682 23.2134 19.5555 22.4339C19.2169 21.194 18.8669 19.912 18.384 18.9002C17.7555 17.5839 16.9881 16.9441 16.038 16.9441H15.9621C15.0444 16.9441 14.2937 17.5789 13.6672 18.8849C13.1863 19.8872 12.8239 21.1665 12.4718 22.4091C12.2509 23.1889 12.085 23.9188 11.8598 24.5418C11.8437 24.5863 11.7987 24.6454 11.7705 24.6545C11.6376 24.697 11.3256 24.3715 10.7906 23.6018C10.2466 22.819 9.64573 21.6956 9.09863 20.4388C7.86437 17.6025 7.0976 14.5922 7.0976 12.5826C7.09752 10.2008 8.78216 7.73745 11.6013 7.73745Z" fill="black"/>
<path id="Vector_2" d="M31.5371 11.2931C31.5371 11.2931 30.6455 11.5398 30.3496 11.6266C30.2158 11.6659 30.2059 11.5892 30.2059 11.5892C29.5495 8.73118 28.0722 6.19606 25.8854 4.17108C23.1592 1.64674 19.6105 0.256531 15.8929 0.256531C12.1691 0.256531 8.61607 1.65078 5.88822 4.18242C3.1752 6.70034 1.52044 10.1118 1.22878 13.7886C1.19414 14.2251 1.51989 14.607 1.95639 14.6416C1.97772 14.6433 1.99896 14.6441 2.01997 14.6441C2.42936 14.6441 2.77643 14.3292 2.80941 13.9141C3.34644 7.14477 9.09348 1.84215 15.893 1.84215C22.063 1.84215 27.3569 6.1435 28.6823 12.0157C28.6823 12.0157 28.7104 12.0855 28.6505 12.1039C28.252 12.2266 27.0448 12.5548 27.0448 12.5548C26.6896 12.6545 26.6315 12.9286 26.9157 13.1637L29.9468 15.6723C30.2311 15.9074 30.562 15.8145 30.6821 15.4658L31.9642 11.7461C32.0844 11.3972 31.8923 11.1935 31.5371 11.2931Z" fill="black"/>
<path id="Vector_3" d="M30.1011 17.3584C29.664 17.3236 29.2828 17.6495 29.2481 18.086C28.711 24.8554 22.964 30.1579 16.1646 30.1579C9.99243 30.1579 4.69846 25.8604 3.37548 19.9853C3.37548 19.9853 3.35725 19.9041 3.41829 19.8865C3.87176 19.7559 4.9554 19.4549 4.9554 19.4549C5.31064 19.3552 5.36867 19.0811 5.08446 18.8458L2.0533 16.3374C1.76909 16.1022 1.43826 16.1951 1.318 16.5439L0.0358499 20.2636C-0.0844136 20.6121 0.107913 20.816 0.462995 20.7163C0.462995 20.7163 1.32252 20.4737 1.77139 20.3489C1.82601 20.3337 1.84987 20.4344 1.84987 20.4344C2.50541 23.2949 3.98378 25.8025 6.17214 27.8289C8.89833 30.3532 12.4469 31.7434 16.1645 31.7434C19.8883 31.7434 23.4413 30.3492 26.1691 27.8176C28.8822 25.2996 30.5369 21.8882 30.8285 18.2113C30.8633 17.775 30.5375 17.3931 30.1011 17.3584Z" fill="black"/>
</g>
</g>
</g>
</svg>
