<svg width="48" height="48" viewBox="0 0 48 48" fill="none" xmlns="http://www.w3.org/2000/svg">
<g id="Sex and Dermatology Specialist" clip-path="url(#clip0_78_65)">
<path id="Vector" d="M0.09375 36.5127C0.283082 35.7621 0.447731 35.0497 0.745394 34.3745C1.33108 33.0458 2.25094 32.0028 3.44203 31.1971C4.8209 30.2644 6.3626 29.939 8.01202 29.9932C9.07332 30.0282 10.1368 29.9914 11.1991 30.0057C11.4622 30.0092 11.538 29.9367 11.5383 29.6702C11.5391 28.9057 11.5284 28.8683 10.6501 28.5237C9.92019 28.2373 9.30948 27.7639 8.69079 27.301C7.72896 26.5813 6.98219 25.6552 6.3542 24.6569C5.69263 23.6051 5.22043 22.4473 4.97685 21.2172C4.91757 20.9178 4.77224 20.8117 4.50074 20.7044C3.5844 20.3424 3.04015 19.6788 2.89708 18.6688C2.72961 17.4864 3.29767 16.5445 4.27525 16.0636C4.48069 15.9625 4.50134 15.877 4.50084 15.7049C4.4985 14.8925 4.50368 14.08 4.49903 13.2676C4.48796 11.3325 4.87401 9.48198 5.71468 7.73815C6.16531 6.80338 6.76825 5.96468 7.43488 5.16674C8.36362 4.05507 9.50911 3.23816 10.8048 2.62651C11.9529 2.08448 13.1664 1.80734 14.437 1.6699C16.386 1.45906 18.2119 1.87543 19.9376 2.67811C21.3106 3.31673 22.5617 4.18991 23.4886 5.44037C23.507 5.4652 23.5285 5.49203 23.5549 5.50591C23.9362 5.70623 23.9592 6.45039 24.3978 6.3375C24.7626 6.24362 25.0791 5.81596 25.4668 5.58702C26.0975 5.21463 26.7648 5.05302 27.484 4.95406C28.6575 4.7926 29.7148 5.08496 30.7199 5.62616C32.0643 6.35011 32.8619 7.51196 33.1786 8.98238C33.465 10.3119 33.3107 11.6141 32.6031 12.7931C31.8123 14.1108 30.6531 14.9747 29.1326 15.2725C28.193 15.4566 27.2399 15.4942 26.3194 15.1248C26.1461 15.0553 26.0653 15.0928 26.0592 15.2979C26.0487 15.6549 26.0377 15.9109 26.504 16.0828C27.9979 16.6333 28.5356 18.6287 27.5581 19.8947C27.1696 20.398 26.614 20.6416 26.0215 20.8061C25.9034 20.8389 25.8044 20.8035 25.7748 20.9919C25.5326 22.5326 24.9466 23.9373 24.0018 25.1769C22.9132 26.6052 21.6934 27.8909 19.9598 28.5498C19.6814 28.6556 19.5271 28.8038 19.5901 29.1226C19.6139 29.2429 19.6101 29.3743 19.591 29.4963C19.529 29.8902 19.65 30.0241 20.0814 30.0123C21.3617 29.9774 22.6435 30.0007 23.9247 29.9993C24.3243 29.9988 24.718 30.0425 25.0928 30.183C25.3746 30.2886 25.5549 30.2531 25.6876 29.9448C26.0619 29.0754 26.5754 28.289 27.1528 27.5384C28.1376 26.2582 29.3494 25.255 30.7521 24.4661C32.1073 23.7039 33.571 23.2259 35.0995 23.0867C37.071 22.9071 39.0185 23.1274 40.8775 23.902C42.4713 24.5661 43.8479 25.5405 45.0161 26.7935C46.4301 28.3102 47.404 30.0731 47.823 32.1265C47.9056 32.5315 47.997 32.9315 48.0575 33.3598C48.0938 34.3144 48.0938 35.2539 48.0938 36.2373C48.0257 37.3448 47.8264 38.3768 47.3901 39.3576C45.5576 43.477 42.4244 45.908 37.9663 46.6058C36.8978 46.7731 35.8268 46.687 34.7485 46.608C32.881 46.4711 31.0056 46.5193 29.1339 46.5912C28.8857 46.6008 28.6376 46.6403 28.3874 46.6403C19.2852 46.6405 10.183 46.6411 1.08084 46.6376C0.731454 46.6374 0.340989 46.7099 0.116672 46.2547C0.09375 42.998 0.09375 39.7773 0.09375 36.5127Z" fill="#093964"/>
<path id="Vector_2" d="M6.08234 19.1166C6.07862 17.8839 6.09744 16.6963 6.0656 15.5101C6.05439 15.0927 6.21996 15.0517 6.55238 15.1081C8.05129 15.3626 9.56297 15.4645 11.0791 15.3685C14.5486 15.1488 17.6962 14.1481 20.1459 11.5182C20.3791 11.2678 20.5974 11.0033 20.8558 10.7073C20.9772 10.9219 21.0826 11.1174 21.1964 11.3078C21.9456 12.5625 22.9208 13.6004 24.1713 14.3646C24.3954 14.5016 24.491 14.6478 24.4879 14.9189C24.4707 16.4026 24.5012 17.8871 24.4661 19.3702C24.367 23.5502 21.33 27.1255 17.2174 27.937C11.8538 28.9954 6.9157 25.4662 6.17886 20.0461C6.13897 19.7526 6.11586 19.4569 6.08234 19.1166Z" fill="#F6C9A5"/>
<path id="Vector_3" d="M37.2512 34.9311C38.9392 36.95 41.6885 36.1923 42.3983 34.1177C42.6138 33.4879 42.6239 32.8601 42.3783 32.2421C42.2852 32.0079 42.3062 31.8558 42.4934 31.6702C43.2252 30.9447 43.9452 30.2068 44.6512 29.4562C44.8843 29.2083 44.9922 29.2473 45.1553 29.5211C45.9182 30.802 46.3616 32.1801 46.5127 33.6629C46.7488 35.9789 46.2872 38.1439 45.0475 40.1067C43.213 43.0112 40.5739 44.6335 37.1285 44.9273C35.0193 45.1071 33.081 44.6122 31.2566 43.572C30.9375 43.3901 30.8904 43.2754 31.1778 43.0119C31.73 42.5055 32.2569 41.971 32.7822 41.4363C32.9581 41.2571 33.1211 41.2219 33.3647 41.2948C34.8746 41.7467 36.2943 41.099 36.931 39.6854C37.5366 38.3408 37.0615 36.7646 35.7966 35.9551C35.5938 35.8254 35.4365 35.6766 35.3133 35.4653C34.5558 34.1663 33.0138 33.6312 31.6778 34.1908C30.3224 34.7586 29.5522 36.3323 29.9776 37.7446C30.0829 38.094 30.0356 38.3054 29.7741 38.554C29.2314 39.0699 28.7164 39.6163 28.2097 40.1681C27.9901 40.4072 27.8776 40.398 27.7089 40.1156C26.5364 38.1538 25.9825 36.0468 26.2395 33.7631C26.6807 29.8432 28.6811 26.9751 32.2763 25.3749C35.496 23.9419 38.6865 24.2425 41.7304 26.0372C42.0308 26.2144 41.9956 26.328 41.7749 26.5423C41.0354 27.2603 40.308 27.991 39.5867 28.7273C39.4169 28.9006 39.2795 28.9628 39.0246 28.8764C37.5459 28.3752 36.1037 28.9742 35.4447 30.3378C34.7933 31.6858 35.2394 33.3124 36.5204 34.1201C36.8455 34.3252 37.03 34.611 37.2512 34.9311Z" fill="#00ABE9"/>
<path id="Vector_4" d="M5.78666 36.2616C5.2657 36.9889 5.07975 37.7855 5.07347 38.6289C5.06404 39.8944 5.06819 41.16 5.07197 42.4255C5.07424 43.1839 5.39403 43.4927 6.16554 43.495C6.44673 43.4958 6.72946 43.5103 7.00877 43.4866C7.4304 43.4508 7.73482 43.1407 7.74734 42.77C7.76044 42.3825 7.4443 42.0064 7.00567 42.022C6.56502 42.0378 6.55031 41.8392 6.55693 41.4988C6.57727 40.4524 6.54184 39.4045 6.57731 38.3589C6.61433 37.2674 7.36658 36.4143 8.399 36.2111C9.36722 36.0206 10.3711 36.5296 10.8114 37.4312C10.9723 37.7607 11.0438 38.1119 11.0463 38.473C11.0538 39.5354 11.0416 40.598 11.0551 41.6602C11.0585 41.926 10.9766 42.0013 10.712 42.0039C9.95875 42.0111 9.62684 42.2479 9.623 42.7317C9.61899 43.2378 9.99023 43.4886 10.7454 43.4893C11.0735 43.4896 11.4025 43.5039 11.7295 43.4848C12.2231 43.4559 12.5352 43.1749 12.536 42.6867C12.5385 41.1251 12.6422 39.5586 12.4899 38.003C12.3353 36.4241 11.4354 35.3748 9.94274 34.851C9.67428 34.7568 9.53917 34.663 9.55016 34.3432C9.57804 33.5317 9.5699 32.7184 9.55364 31.9062C9.54811 31.6303 9.60991 31.4836 9.91183 31.5338C9.92703 31.5364 9.94303 31.5341 9.95865 31.5341C10.5835 31.5371 11.2655 31.3843 11.8171 31.5867C12.3719 31.7904 12.6739 32.46 13.0876 32.9241C13.5751 33.471 14.2193 33.9695 14.4648 34.6148C14.7042 35.2439 14.5301 36.0318 14.5306 36.7499C14.5324 39.3435 14.5236 41.9372 14.5401 44.5306C14.5424 44.8991 14.4468 44.995 14.0772 44.9937C10.0619 44.9798 6.0465 44.983 2.03113 44.9893C1.74874 44.9897 1.58029 44.9848 1.58342 44.6082C1.60365 42.171 1.5651 39.7331 1.60791 37.2964C1.65672 34.5181 3.68244 32.1485 6.38766 31.6434C6.82971 31.5609 7.28897 31.5729 7.7395 31.5325C7.97553 31.5114 8.07101 31.5852 8.06676 31.8416C8.05253 32.7007 8.05013 33.5604 8.0682 34.4193C8.07369 34.6804 7.95976 34.7641 7.73988 34.8313C6.93722 35.0766 6.29675 35.5541 5.78666 36.2616Z" fill="#D2E0F3"/>
<path id="Vector_5" d="M27.6719 42.5458C28.4734 43.3915 29.2901 44.171 30.2077 44.8832C30.09 44.8832 29.9722 44.8832 29.8545 44.8832C25.4031 44.8832 20.9517 44.8776 16.5004 44.8929C16.0988 44.8943 16.0193 44.7742 16.0211 44.3962C16.0366 41.2569 16.0348 38.1175 16.0223 34.9782C16.0211 34.6652 16.1251 34.4624 16.3481 34.2586C17.2013 33.4791 18.0589 32.7024 18.8711 31.8812C19.2014 31.5472 19.5513 31.5133 19.9657 31.5186C21.0068 31.5318 21.0069 31.523 21.0069 32.5654C21.0069 34.1273 21.0008 35.6892 21.0125 37.251C21.0146 37.5289 20.9521 37.6789 20.6789 37.82C18.953 38.7119 18.3114 40.565 19.1657 42.1051C19.8182 43.2814 21.1805 43.922 22.4997 43.6726C23.7516 43.436 24.8074 42.3454 24.9423 41.1494C25.1043 39.7125 24.4304 38.4336 23.108 37.8975C22.5872 37.6863 22.4805 37.4253 22.4905 36.9157C22.5233 35.2451 22.5103 33.5734 22.496 31.9023C22.4934 31.5976 22.5732 31.4942 22.8852 31.5081C23.4757 31.5346 24.0683 31.4899 24.6481 31.6658C24.9494 31.7572 25.0384 31.8591 24.9707 32.2173C24.2432 36.0674 25.0952 39.5188 27.6719 42.5458Z" fill="#D2DFF2"/>
<path id="Vector_6" d="M22.1154 9.66529C22.0029 9.38712 21.9127 9.13668 21.7937 8.90076C21.4377 8.19506 20.7237 8.13882 20.2708 8.78095C19.8586 9.36539 19.4846 9.97048 18.9993 10.5091C17.9752 11.6459 16.7408 12.4579 15.3388 13.0221C14.017 13.5539 12.6319 13.7782 11.2095 13.9C9.57772 14.0397 7.98643 13.8473 6.38824 13.6035C6.21589 13.5773 6.08192 13.5536 6.09101 13.3377C6.1152 12.7634 6.04225 12.1875 6.1742 11.6137C6.2259 11.3889 6.31378 11.3109 6.5144 11.3548C7.54446 11.5805 8.58981 11.5563 9.63162 11.5299C12.5502 11.4559 15.1891 10.5617 17.5143 8.77954C18.7608 7.82418 19.8003 6.67208 20.6863 5.3821C20.8816 5.09776 21.008 5.14764 21.2346 5.33508C22.9122 6.72259 23.8958 8.5178 24.3295 10.6238C24.4665 11.2889 24.5249 11.9737 24.4456 12.7233C23.4221 11.8658 22.65 10.8793 22.1154 9.66529Z" fill="#4A5D63"/>
<path id="Vector_7" d="M11.5941 7.39415C14.0025 6.72609 16.0215 5.48257 17.7085 3.69883C17.8902 3.50674 18.0534 3.4716 18.2801 3.57319C18.4931 3.66865 18.716 3.74219 18.9289 3.83802C19.6414 4.15884 19.6581 4.17371 19.1908 4.82402C17.1168 7.71041 14.3685 9.49464 10.8008 9.94633C9.6008 10.0983 8.40705 10.0511 7.21214 9.93C6.61113 9.86909 6.58972 9.81416 6.82325 9.23408C6.88142 9.08959 6.94186 8.94542 6.98907 8.79722C7.22586 8.05394 7.62912 7.70124 8.50942 7.74119C9.52165 7.78713 10.5573 7.66745 11.5941 7.39415Z" fill="#4A5D63"/>
<path id="Vector_8" d="M40.9661 32.7505C41.1945 33.6206 40.8469 34.3231 40.0828 34.5938C39.343 34.8559 38.6242 34.539 38.2872 33.7697C38.1255 33.4005 37.8762 33.1647 37.5074 33.0163C36.7379 32.7066 36.4239 31.7836 36.8135 31.0193C37.1792 30.302 38.0778 30.0438 38.7808 30.454C39.5159 30.8831 39.665 30.8643 40.2701 30.2599C41.1763 29.3547 42.0917 28.4584 42.9805 27.5365C43.2151 27.2932 43.3506 27.3186 43.5738 27.5295C44.0924 28.0197 44.1016 28.0143 43.5848 28.5312C42.8006 29.3154 42.0165 30.0997 41.2323 30.8839C40.4193 31.6969 40.4135 31.7351 40.9661 32.7505Z" fill="#00ECCF"/>
<path id="Vector_9" d="M30.4793 40.0418C30.8119 39.7093 31.1224 39.4015 31.4299 39.0908C31.9162 38.5995 31.9389 38.3869 31.576 37.7805C31.0129 36.8396 31.4542 35.8201 32.5265 35.5848C33.1561 35.4467 33.8654 35.8075 34.1218 36.4457C34.2659 36.8044 34.4708 37.0271 34.8389 37.1755C35.7105 37.527 36.0649 38.5014 35.6394 39.2581C35.1921 40.0533 34.2955 40.2367 33.472 39.7012C32.9723 39.3763 32.7083 39.3941 32.2767 39.8341C31.4576 40.6692 30.587 41.454 29.8199 42.34C29.8102 42.3512 29.809 42.3803 29.8014 42.3813C29.3848 42.433 29.2968 42.0177 29.0436 41.8365C28.9449 41.7658 28.7291 41.6521 28.9648 41.482C29.5261 41.077 29.9521 40.5303 30.4793 40.0418Z" fill="#00ECCF"/>
<path id="Vector_10" d="M13.5926 29.4463C15.0805 29.7433 16.5138 29.6823 17.9703 29.2552C18.0199 29.9592 18.1431 30.6069 17.4722 31.1497C16.821 31.6765 16.2628 32.3208 15.6831 32.9319C15.4794 33.1467 15.3648 33.132 15.1747 32.9189C14.5308 32.1973 13.8668 31.4936 13.2122 30.7815C13.069 30.6258 12.9264 29.6035 13.0474 29.4434C13.1972 29.2453 13.3823 29.4785 13.5926 29.4463Z" fill="#EAB088"/>
<path id="Vector_11" d="M10.7196 4.43637C12.2342 3.47256 14.5021 2.96567 16.0414 3.237C14.743 4.58852 12.3948 6.16253 8.54846 6.25644C9.18409 5.5055 9.90651 4.94446 10.7196 4.43637Z" fill="#4A5C63"/>
<path id="Vector_12" d="M31.3747 8.55147C31.5112 8.76211 31.4577 8.87561 31.2804 8.99605C29.6185 10.1249 27.9604 11.2593 26.3068 12.4004C26.0601 12.5706 25.992 12.5626 25.9618 12.2363C25.8988 11.5557 26.0458 11.0661 26.6798 10.6424C27.9457 9.79651 29.1503 8.8551 30.3463 7.91032C30.7407 7.59878 30.9331 7.68409 31.1287 8.06531C31.2064 8.21678 31.2826 8.36901 31.3747 8.55147Z" fill="#4A5C63"/>
<path id="Vector_13" d="M20.9338 41.889C20.1723 41.1196 20.1755 40.1432 20.9144 39.48C21.6051 38.8601 22.5881 38.9627 23.1784 39.7162C23.6182 40.2778 23.5924 41.1641 23.1204 41.708C22.5931 42.3157 21.7526 42.3944 20.9338 41.889Z" fill="#00EDD0"/>
<path id="Vector_14" d="M28.5687 7.38184C27.5974 8.11009 26.6512 8.81579 25.6573 9.55706C25.4712 9.04432 25.29 8.5753 25.133 8.09827C25.0629 7.88492 25.1758 7.69375 25.3247 7.54957C26.3426 6.56435 27.9396 6.10146 29.4161 6.7309C29.1288 6.95041 28.8612 7.15485 28.5687 7.38184Z" fill="#4A5C63"/>
<path id="Vector_15" d="M31.6545 10.5965C31.673 11.9373 30.4152 13.398 28.9385 13.7712C28.3264 13.9259 27.7097 13.9371 26.9952 13.7548C28.581 12.6735 30.1017 11.6367 31.6545 10.5965Z" fill="#495C63"/>
<path id="Vector_16" d="M26.539 18.647C26.4348 18.9188 26.2901 19.1051 25.9758 19.2073C25.9758 18.6918 25.9789 18.2168 25.9744 17.7419C25.9722 17.5087 26.0806 17.5102 26.2271 17.6194C26.5663 17.8724 26.6575 18.2112 26.539 18.647Z" fill="#DDA985"/>
<path id="Vector_17" d="M4.53132 18.9278C4.06302 18.5741 4.07476 18.1324 4.56582 17.7428C4.56582 18.1507 4.56582 18.5302 4.53132 18.9278Z" fill="#D6A684"/>
<path id="Vector_18" d="M31.6877 10.5941C31.6966 10.5913 31.7052 10.5882 31.7003 10.5892C31.6868 10.5932 31.6875 10.5937 31.6877 10.5941Z" fill="#495C63"/>
<path id="Vector_19" d="M22.0319 18.7662C22.116 20.7758 20.0426 22.0049 18.3872 21.0481C17.5244 20.5494 17.0028 19.4351 17.1759 18.4484C17.2474 18.0408 17.5741 17.7455 17.9386 17.7592C18.312 17.7731 18.6118 18.0788 18.6516 18.4969C18.6663 18.6516 18.6459 18.8104 18.6681 18.9635C18.7418 19.4698 19.2126 19.9005 19.6438 19.8694C20.1048 19.8361 20.497 19.4007 20.5347 18.8753C20.5435 18.7511 20.5295 18.6249 20.5435 18.5016C20.5912 18.0791 20.8859 17.7773 21.2573 17.7603C21.6386 17.7428 21.9632 18.0489 22.0265 18.4908C22.0375 18.5674 22.0305 18.6465 22.0319 18.7662Z" fill="#0C3B64"/>
<path id="Vector_20" d="M10.9394 19.8543C11.7196 19.8949 12.084 19.5693 12.118 18.843C12.152 18.1148 12.4021 17.7557 12.8737 17.7576C13.3694 17.7596 13.6264 18.157 13.609 18.8943C13.5737 20.3926 12.4823 21.446 11.0417 21.3722C9.66568 21.3017 8.63398 20.0526 8.74856 18.5959C8.78828 18.0909 9.10409 17.7457 9.51508 17.7581C9.93375 17.7706 10.2264 18.1121 10.2312 18.6313C10.2361 19.1637 10.3454 19.6249 10.9394 19.8543Z" fill="#0C3B64"/>
<path id="Vector_21" d="M29.708 27.7504C30.2385 27.3896 30.4555 27.4034 30.877 27.8176C31.3441 28.2765 31.8075 28.7393 32.2662 29.2067C32.645 29.5927 32.6621 30.0221 32.3243 30.3539C31.9916 30.6808 31.6416 30.6526 31.226 30.2469C30.7575 29.7895 30.3057 29.3148 29.8338 28.861C29.4908 28.5312 29.4215 28.1815 29.708 27.7504Z" fill="#083A65"/>
<path id="Vector_22" d="M42.6767 41.0388C42.2519 41.1421 41.9543 41.0111 41.685 40.7181C41.2948 40.2934 40.8679 39.9026 40.466 39.4883C40.0923 39.1031 40.0506 38.6767 40.3389 38.3646C40.6206 38.0598 41.1646 38.0631 41.5199 38.4005C41.9722 38.8301 42.4174 39.2688 42.8419 39.7257C43.2862 40.2038 43.2337 40.6093 42.6767 41.0388Z" fill="#083A66"/>
<path id="Vector_23" d="M28.3912 32.8517C28.0863 32.6215 27.9452 32.3514 28.0784 32.0167C28.2177 31.6669 28.4926 31.4908 28.883 31.4956C29.5528 31.504 30.2232 31.486 30.8926 31.5052C31.3058 31.5171 31.6411 31.8321 31.6424 32.2002C31.6437 32.5846 31.4479 32.8972 31.0593 32.9321C30.1812 33.011 29.296 33.0985 28.3912 32.8517Z" fill="#083A66"/>
<path id="Vector_24" d="M38.2249 42.5489C38.1192 41.7514 38.1515 40.9879 38.1906 40.2289C38.2144 39.7676 38.5522 39.5191 38.977 39.5413C39.3824 39.5625 39.6529 39.8623 39.66 40.3307C39.6698 40.9846 39.66 41.6387 39.6637 42.2927C39.6661 42.7224 39.4805 43.0275 39.0531 43.1086C38.6433 43.1862 38.3684 42.9797 38.2249 42.5489Z" fill="#083B66"/>
<path id="Vector_25" d="M34.4983 29.5341C33.909 29.6313 33.5362 29.3864 33.5022 28.8284C33.4616 28.1615 33.4644 27.4886 33.5019 26.8213C33.5316 26.2915 33.8586 26.0203 34.3119 26.0526C34.7279 26.0822 34.972 26.3877 34.977 26.9052C34.9829 27.5124 34.9721 28.1199 34.9808 28.7271C34.986 29.0864 34.8766 29.3678 34.4983 29.5341Z" fill="#083B66"/>
<path id="Vector_26" d="M45.2937 36.3441C45.5915 36.6034 45.6423 36.8956 45.5121 37.2123C45.3858 37.5197 45.1092 37.6554 44.8045 37.6649C44.1369 37.6856 43.4672 37.692 42.8004 37.6604C42.3411 37.6387 42.004 37.2637 42.0234 36.8835C42.0435 36.4886 42.3921 36.1899 42.8676 36.1832C43.4891 36.1745 44.1109 36.1829 44.7325 36.1798C44.924 36.1789 45.1035 36.2097 45.2937 36.3441Z" fill="#083B66"/>
</g>
<defs>
<clipPath id="clip0_78_65">
<rect width="48" height="48" fill="white"/>
</clipPath>
</defs>
</svg>
