<svg width="32" height="32" viewBox="0 0 32 32" fill="none" xmlns="http://www.w3.org/2000/svg">
<g id="doctor 3">
<path id="Vector" d="M27.2032 30.576C27.0752 29.3504 27.0432 28.1152 26.9216 26.8864C26.7392 25.0464 26.4768 23.216 25.9328 21.44C25.6384 20.4896 25.1904 19.664 24.2976 19.1392C23.4432 18.6368 22.512 18.3392 21.5776 18.048C21.2512 17.9456 21.3088 18.176 21.328 18.3424C21.4144 19.1456 21.3408 19.9392 21.1744 20.7232C21.12 20.976 21.2064 21.0912 21.424 21.216C22.3456 21.7312 22.8704 22.5184 22.928 23.584C22.9856 24.6816 22.7616 25.76 22.6944 26.848C22.6496 27.5872 22.5696 28.3296 22.2592 29.0176C21.8848 29.8496 21.2384 30.1792 20.3552 30.0096C20.0192 29.9456 19.7984 29.792 19.8528 29.4208C19.9072 29.056 20.16 28.928 20.496 28.9952C20.9184 29.0784 21.1648 28.88 21.3376 28.5344C21.456 28.2944 21.52 28.032 21.5456 27.7664C21.6704 26.5408 21.8048 25.3152 21.904 24.0864C21.9936 22.976 21.3984 22.1344 20.4128 21.9104C19.3952 21.68 18.5184 22.1408 18.0992 23.1776C17.7632 24.0064 17.488 24.8608 17.168 25.6992C16.9856 26.1728 16.8288 26.6496 16.7328 27.1456C16.608 27.7888 16.736 28.0256 17.3312 28.2944C17.616 28.4224 17.7536 28.624 17.6544 28.928C17.5552 29.2352 17.3312 29.3216 17.024 29.264C16.1472 29.0976 15.6384 28.4736 15.6544 27.5744C15.6608 27.2064 15.7152 26.8512 15.8176 26.4992C16.1952 25.1936 16.6912 23.9296 17.1968 22.6688C17.6512 21.536 18.5568 20.912 19.7888 20.8256C20.0288 20.8064 20.1312 20.7392 20.176 20.5056C20.3264 19.728 20.3488 18.9504 20.2784 18.1632C20.2464 17.792 20.1024 17.5904 19.7152 17.5296C19.4016 17.4816 19.088 17.376 18.7936 17.2544C18.4992 17.136 18.3712 17.1712 18.2688 17.504C17.9072 18.7136 17.4016 19.8688 16.816 20.9888C16.5344 21.5296 16.208 22.048 15.8464 22.6752C15.7024 21.8816 15.5936 21.2064 15.4528 20.5344C15.3888 20.2336 15.3952 19.9616 15.5264 19.6768C15.6 19.5136 15.7952 19.3216 15.6 19.1456C15.2896 18.864 14.9504 18.6176 14.6208 18.3584C14.6112 18.3488 14.5664 18.3712 14.5472 18.3872C14.2272 18.6624 13.8624 18.8992 13.6128 19.2256C13.4624 19.4208 13.7536 19.6768 13.8176 19.9136C13.8304 19.968 13.8592 20.0256 13.8528 20.0768C13.7184 20.9024 13.5776 21.7248 13.4272 22.6272C13.3216 22.5024 13.2736 22.4544 13.2416 22.4C12.3968 21.0368 11.7088 19.6032 11.1872 18.0864C11.0816 17.776 11.0912 17.296 10.8256 17.1968C10.576 17.104 10.2016 17.3504 9.8816 17.44C9.7152 17.488 9.568 17.5328 9.504 17.728C9.3824 18.1056 9.2096 18.464 9.12 18.8416C8.5312 21.2992 8.6784 23.7312 9.4368 26.1344C9.552 26.4992 9.6896 26.6976 10.1056 26.7776C10.9088 26.9376 11.3408 27.8176 11.0656 28.5792C10.7776 29.3824 9.9104 29.76 9.1552 29.4144C8.3936 29.0688 8.0672 28.1312 8.5088 27.4336C8.6688 27.1808 8.6496 26.9856 8.5632 26.736C7.7504 24.4032 7.5328 22.016 7.9072 19.5712C7.9936 19.008 8.1824 18.4704 8.3104 17.8752C7.1936 18.2016 6.1216 18.4736 5.1552 19.0368C4.4448 19.4496 3.8944 19.9904 3.584 20.7776C3.2128 21.7216 2.9888 22.7008 2.8 23.6928C2.3648 25.9968 2.2304 28.336 2.0544 30.6688C2.0064 31.3056 2.2912 31.6992 2.7968 31.9968H26.4416C27.0432 31.712 27.2736 31.2576 27.2032 30.576ZM9.3216 10.896C9.5392 10.9536 9.6416 11.0592 9.7248 11.2576C10.2144 12.4288 10.8192 13.5296 11.7184 14.4448C12.4288 15.1712 13.2512 15.7152 14.2944 15.8208C15.6064 15.9552 16.6304 15.3696 17.5168 14.4832C18.4192 13.5776 19.0464 12.4896 19.536 11.312C19.6032 11.152 19.6256 10.9504 19.8688 10.928C20.7424 10.8448 21.424 9.46241 21.28 8.62081C21.2384 8.38081 21.1488 8.16001 20.8864 8.14401C20.56 8.12161 20.6208 7.94881 20.6688 7.74721C20.8416 7.02401 20.9152 6.28481 20.9504 5.65121C20.9728 5.00801 20.912 4.47361 20.784 3.96161C20.5888 3.18721 20.1888 2.52161 19.4624 2.15041C19.0336 1.92961 18.704 1.68641 18.56 1.20961C18.5056 1.02401 18.3232 0.902411 18.1728 0.777611C17.616 0.316811 16.9568 0.115211 16.272 0.0480112C14.2208 -0.153589 12.3072 0.284811 10.6144 1.47841C9.4464 2.29761 8.6432 3.37921 8.48 4.85121C8.3712 5.82081 8.4256 6.78081 8.608 7.73761C8.6464 7.94241 8.7296 8.15681 8.368 8.15041C8.2048 8.14721 8.0992 8.28481 8.0448 8.44481C7.744 9.30241 8.4384 10.6624 9.3216 10.896Z" fill="black"/>
</g>
</svg>
