<svg width="32" height="32" viewBox="0 0 32 32" fill="none" xmlns="http://www.w3.org/2000/svg">
<g id="headphone-alt 3">
<path id="Vector" d="M2.496 25.5136H3.8496C3.5936 30.6464 8.9696 31.664 13.152 31.5008C13.3248 31.7984 13.6416 32 14.0096 32H18.2656C18.816 32 19.264 31.5552 19.264 31.0016V30.1216C19.264 29.5712 18.816 29.1232 18.2656 29.1232H14.0096C13.5232 29.1232 13.12 29.472 13.0304 29.9296C9.6448 30.1056 5.2672 29.6 5.44 25.5136H7.27679C7.7472 25.5136 8.12479 25.1328 8.12479 24.6656V14.736C8.12479 14.2656 7.744 13.888 7.27679 13.888H4.7072C5.0432 7.776 10.1088 2.7264 16.0672 2.7264C22.0288 2.7264 27.0944 7.7728 27.4304 13.888H24.7392C24.2688 13.888 23.8912 14.2688 23.8912 14.736V24.6688C23.8912 25.136 24.2688 25.5168 24.7392 25.5168H29.5264C29.9936 25.5168 30.3744 25.136 30.3744 24.6688V14.736C30.3744 14.5248 30.2944 14.336 30.1664 14.1856C29.9872 6.4608 23.6096 0 16.0736 0C8.5792 0 2.2272 6.3968 1.97759 14.0672C1.77919 14.2208 1.64799 14.464 1.64799 14.736V24.6688C1.64799 25.136 2.0288 25.5136 2.496 25.5136Z" fill="black"/>
</g>
</svg>
