<svg width="48" height="48" viewBox="0 0 48 48" fill="none" xmlns="http://www.w3.org/2000/svg">
<g id="Ears Nose And Throat">
<path id="Vector" fill-rule="evenodd" clip-rule="evenodd" d="M28.7393 22.6733C28.7368 22.676 28.7343 22.6788 28.7317 22.6815C28.731 22.6823 28.7317 22.6816 28.7317 22.6815C28.732 22.6812 28.7327 22.6804 28.7331 22.68L28.7359 22.677L28.7377 22.675L28.7393 22.6733ZM27.9999 22C27.26 21.3273 27.2602 21.327 27.2605 21.3267L27.2624 21.3246L27.2653 21.3215L27.272 21.3143L27.2899 21.2954C27.3037 21.2811 27.3214 21.2631 27.343 21.242C27.386 21.1999 27.4446 21.1453 27.5184 21.0824C27.6656 20.9571 27.8763 20.7965 28.1473 20.6375C28.69 20.3191 29.4882 20 30.4999 20C32.3215 20 33.9999 21.5108 33.9999 24.05C33.9999 26.1829 33.0439 27.6834 31.9501 28.6308C31.4108 29.098 30.8382 29.4321 30.326 29.6518C29.8373 29.8614 29.3261 30 28.909 30C28.3567 30 27.909 29.5523 27.909 29C27.909 28.4477 28.3567 28 28.909 28C28.9087 28 28.9087 28 28.909 28C28.9111 27.9999 28.9273 27.9993 28.9593 27.9946C28.9948 27.9894 29.0422 27.9802 29.1009 27.9654C29.219 27.9356 29.368 27.8865 29.5375 27.8138C29.8775 27.6679 30.2708 27.4395 30.6406 27.1192C31.365 26.4916 31.9999 25.5171 31.9999 24.05C31.9999 22.4892 31.0948 22 30.4999 22C29.9207 22 29.4689 22.1809 29.1593 22.3625C29.0042 22.4535 28.8881 22.5429 28.8152 22.6051C28.7789 22.636 28.7541 22.6594 28.7412 22.672L28.7317 22.6815C28.3592 23.0817 27.7329 23.1088 27.3272 22.7399C26.9186 22.3684 26.889 21.7353 27.2605 21.3267L27.9999 22Z" fill="#333333"/>
<path id="Vector_2" d="M20.5 23C16 23 13 27 13 29C13.3895 29.0276 14 29 14 29C14 29 15.4651 26.5 19 26.5C21.0404 26.5 22.8254 27.339 23.5958 28.5987C23.965 29.2022 23.2776 29.7379 22.5916 29.5646C20.8201 29.1172 17.6848 28.6576 15 30V32C16.8606 30.9368 19.2864 31.1453 21.1507 31.5739C22.9313 31.9832 24 33.673 24 35.5V40H26.5814V30.65C26.5814 27.9619 27.5687 27.3148 29.389 25.9609C29.7455 25.6958 29.8565 25.2131 29.6578 24.8157C29.3526 24.2052 28.4902 24.1155 27.9146 24.4822C27.3565 24.8376 26.6187 25.125 25.6977 25.125C24.5 25.125 23.3253 23 20.5 23Z" fill="#333333"/>
<path id="Vector_3" fill-rule="evenodd" clip-rule="evenodd" d="M39 8H9C8.44771 8 8 8.44772 8 9V39C8 39.5523 8.44772 40 9 40H39C39.5523 40 40 39.5523 40 39V9C40 8.44771 39.5523 8 39 8ZM9 6C7.34315 6 6 7.34315 6 9V39C6 40.6569 7.34315 42 9 42H39C40.6569 42 42 40.6569 42 39V9C42 7.34315 40.6569 6 39 6H9Z" fill="#333333"/>
<path id="Vector_4" fill-rule="evenodd" clip-rule="evenodd" d="M21 36C21 34.8954 20.1046 34 19 34H17C16.6855 34 16.5176 33.9367 16.4357 33.8944C16.3522 33.8514 16.2849 33.7922 16.2231 33.7064C16.156 33.6133 16.0963 33.4884 16.0543 33.3412C16.0115 33.1912 16 33.0636 16 33V30C16 28.9851 15.2398 28.1311 14.2317 28.0135L14 30V33C14 34 14.6 36 17 36H19V42H33V34.0652C33 32.1401 33.998 30.3926 35.2581 28.9372C36.2551 27.7856 37.0293 26.4709 37.479 25.0637C38.2281 22.7193 38.1681 20.2166 37.3074 17.9054C36.4467 15.5941 34.8282 13.5898 32.6782 12.1724C30.5282 10.7551 27.9541 9.99558 25.3155 9.99999C22.5889 10.0195 19.9402 10.8451 17.7552 12.3566C15.5701 13.868 13.9628 15.9864 13.1674 18.4032C12.9107 19.3016 12.6255 21.9441 12.6255 21.9441C12.1693 23.0804 11.6845 24.1902 11.1997 25.3001L10.5153 26.912C10.2599 27.3486 10.0863 27.8221 10.002 28.3125C9.98343 28.6382 10.0955 28.9586 10.3166 29.2123C10.5377 29.466 10.8523 29.6349 11.1997 29.6866C11.3138 29.6866 14 30 14 30C14.2317 28.0135 14.2318 28.0135 14.2317 28.0135L13.8086 27.9643C13.5544 27.9349 13.2139 27.8956 12.8696 27.8562C12.6806 27.8347 12.4897 27.813 12.3109 27.7929C12.3269 27.7602 12.342 27.7271 12.3562 27.6937L13.0366 26.0911L13.038 26.0881C13.5191 24.9865 14.014 23.8536 14.4815 22.6894C14.5497 22.5194 14.5943 22.3409 14.614 22.1588L14.6141 22.1577L14.6168 22.1327L14.6258 22.0517C14.6338 21.9807 14.6455 21.8775 14.6604 21.7505C14.6903 21.4959 14.7327 21.1486 14.7826 20.7757C14.8868 19.9965 15.0011 19.2885 15.0814 18.9852C15.7394 17.0189 17.0625 15.2675 18.8929 14.0014C20.7371 12.7258 22.9901 12.0178 25.3244 12C27.5788 11.9973 29.765 12.6475 31.5774 13.8423C33.3897 15.0369 34.7274 16.7083 35.4331 18.6033C36.1379 20.4957 36.1863 22.5383 35.5739 24.4549C35.2163 25.574 34.5883 26.6553 33.7461 27.6281C32.3486 29.2422 31 31.4441 31 34.0652V40H21V36Z" fill="#333333"/>
</g>
</svg>
