<svg width="48" height="48" viewBox="0 0 48 48" fill="none" xmlns="http://www.w3.org/2000/svg">
<g id="Ophthalmologist">
<path id="Vector" d="M40.5243 23.0239C40.5187 23.4814 40.2238 23.4357 39.9566 23.4356C37.3005 23.4351 34.6444 23.4476 31.9886 23.424C31.5156 23.4198 31.3903 23.5417 31.3928 24.0179C31.413 27.9081 31.4036 31.7985 31.4066 35.6888C31.4067 35.8388 31.3322 36.0467 31.468 36.1265C31.6255 36.2192 31.7899 36.0549 31.9263 35.9706C33.3142 35.1128 34.8087 34.527 36.4267 34.3317C38.2421 34.1126 39.9948 34.4067 41.6782 35.139C43.7578 36.0437 45.5383 37.3597 47.0989 38.9909C47.5048 39.4151 47.5012 39.5193 47.0997 39.9473C45.7711 41.3636 44.2352 42.5048 42.5238 43.414C42.2676 43.5501 41.9962 43.6576 41.7361 43.8521C41.8634 43.8604 41.9906 43.8759 42.1179 43.876C43.6959 43.8777 45.2739 43.8765 46.8519 43.8783C47.0192 43.8785 47.1962 43.8444 47.3217 44.0146C47.512 44.2727 47.4172 44.5549 47.1021 44.6124C46.9656 44.6373 46.8216 44.6226 46.6811 44.6226C43.9782 44.623 41.2753 44.6229 38.5724 44.6229C37.5508 44.6229 36.5292 44.6139 35.5077 44.6243C25.5443 44.7259 15.5806 44.7418 5.61712 44.698C4.15476 44.6915 2.68918 44.6325 1.22458 44.6229C0.980686 44.6213 0.759974 44.5473 0.774682 44.2742C0.787968 44.0275 0.932181 43.8629 1.2387 43.8715C1.9256 43.8906 2.61348 43.8716 3.30082 43.8796C3.55209 43.8825 3.66265 43.8541 3.58526 43.5416C3.51587 43.2614 3.55184 42.9507 3.56844 42.6549C3.58428 42.3729 3.48431 42.2708 3.19521 42.2729C2.76275 42.276 2.33011 42.3159 1.89704 42.1943C1.19751 41.9978 0.790151 41.5298 0.754691 40.7917C0.742708 40.5423 0.752267 40.2919 0.752266 40.0419C0.752239 29.2772 0.756427 18.5125 0.746706 7.74777C0.745549 6.46726 1.41701 5.89915 2.60869 5.90669C3.55809 5.91269 3.55813 5.90669 3.56463 4.9476C3.5701 4.14004 4.13561 3.56567 4.93904 3.56551C12.3603 3.56409 19.7815 3.56415 27.2028 3.56538C28.0326 3.56552 28.5879 4.13613 28.5916 4.98024C28.5956 5.907 28.5956 5.907 29.5333 5.9082C30.842 5.90987 31.404 6.47247 31.4041 7.78183C31.4043 9.73479 31.4154 11.6879 31.3951 13.6406C31.3909 14.0462 31.4914 14.1714 31.9128 14.1683C34.5999 14.1487 37.2873 14.1572 39.9745 14.1607C40.1942 14.1609 40.4752 14.0829 40.5027 14.489C40.5578 14.6124 40.5465 14.7076 40.5464 14.8003C40.5437 17.5271 40.5537 20.254 40.5243 23.0239Z" fill="#743C57"/>
<path id="Vector_2" d="M40.5355 23.0395C40.5056 20.2496 40.5044 17.4323 40.505 14.5708C40.6243 14.6202 40.5918 14.7539 40.5919 14.8736C40.5934 17.525 40.5926 20.1764 40.5907 22.8278C40.5907 22.8892 40.5734 22.9506 40.5355 23.0395Z" fill="#555555"/>
<path id="Vector_3" d="M1.55132 15.75C1.55133 13.0469 1.55058 10.3908 1.55178 7.73462C1.55217 6.86698 1.70493 6.71161 2.55764 6.71154C10.9317 6.71092 19.3057 6.71113 27.6797 6.71115C28.3821 6.71115 29.0846 6.70501 29.7869 6.71362C30.3828 6.72092 30.6151 6.94218 30.6174 7.53932C30.6255 9.63296 30.614 11.7267 30.628 13.8203C30.6301 14.1375 30.4967 14.1691 30.238 14.1667C29.0975 14.1565 27.9568 14.1726 26.8164 14.157C26.4016 14.1513 26.224 14.2937 26.2257 14.7267C26.2366 17.4297 26.2382 20.1328 26.2246 22.8358C26.2222 23.3001 26.4245 23.4318 26.8486 23.4265C27.9578 23.4126 29.0674 23.4338 30.1764 23.4147C30.5105 23.4089 30.6309 23.4788 30.6297 23.8461C30.616 28.0647 30.619 32.2833 30.6258 36.5019C30.6262 36.7632 30.5459 36.9336 30.3327 37.0878C29.5336 37.6662 28.8164 38.339 28.1209 39.0377C27.8114 39.3487 27.8069 39.5963 28.1216 39.905C28.634 40.4074 29.1477 40.9075 29.6986 41.3678C29.6184 41.5386 29.4749 41.4729 29.366 41.473C21.0232 41.4765 12.6804 41.4762 4.33765 41.4762C3.71337 41.4762 3.08907 41.4794 2.46482 41.4753C1.74532 41.4706 1.55309 41.2793 1.55262 40.546C1.55007 36.6399 1.55135 32.7337 1.55133 28.8276C1.55131 24.484 1.55132 20.1404 1.55132 15.75Z" fill="#FEFEFE"/>
<path id="Vector_4" d="M29.9378 22.6459C29.0319 22.6816 28.1581 22.6811 27.2846 22.697C27.026 22.7017 26.9248 22.6169 26.9256 22.3494C26.9324 19.9773 26.9338 17.6051 26.9248 15.2329C26.9236 14.9124 27.0905 14.8868 27.3377 14.8892C28.2584 14.898 29.1792 14.8966 30.1434 14.9055C30.5309 15.2587 30.3879 15.6746 30.3375 16.1111C30.2197 16.4274 29.973 16.4093 29.7414 16.432C29.4438 16.4611 29.1315 16.3764 28.8112 16.5228C28.9644 16.7253 29.2341 16.6544 29.3584 16.8799C29.5232 17.3702 29.4818 17.8339 29.4097 18.3324C29.3343 18.6963 28.9719 18.6087 28.7862 18.7795C28.9005 18.9835 29.18 18.9204 29.2781 19.1602C29.422 19.6177 29.3917 20.0452 29.31 20.5075C29.2439 20.7328 29.089 20.7942 28.9212 20.8436C28.8317 20.8699 28.7326 20.9103 28.755 21.0256C28.7766 21.137 28.8868 21.1413 28.9776 21.1497C29.1617 21.1667 29.3469 21.1579 29.5314 21.1683C29.7193 21.179 29.9032 21.1973 30.0291 21.4165C30.1377 21.8476 30.2102 22.2416 29.9378 22.6459Z" fill="#F6AA6F"/>
<path id="Vector_5" d="M41.835 42.8662C41.7059 42.9488 41.6002 42.9511 41.4592 42.9118C42.3067 41.9103 42.7701 40.7715 42.7674 39.4586C42.7648 38.1566 42.3184 37.0237 41.4707 36.0373C41.6561 35.9327 41.8013 36.0379 41.947 36.1101C43.5555 36.9073 44.9748 37.9667 46.2653 39.2092C46.4671 39.4035 46.4919 39.5104 46.273 39.7184C44.9522 40.9732 43.5175 42.063 41.835 42.8662Z" fill="#FDFCFC"/>
<path id="Vector_6" d="M37.1866 14.9415C37.9496 14.9046 38.6813 14.905 39.4128 14.8907C39.6715 14.8856 39.7713 14.984 39.7707 15.2449C39.7652 17.612 39.7651 19.9791 39.7709 22.3462C39.7715 22.6104 39.6678 22.7066 39.4108 22.6955C39.0844 22.6814 38.7569 22.6894 38.3865 22.6819C38.1021 22.5028 38.135 22.2401 38.1265 21.9951C38.0958 21.1085 38.1698 20.22 38.0787 19.2947C38.1544 18.8558 37.9781 18.6774 37.5834 18.6755C37.4127 18.6747 37.2435 18.6482 37.1108 18.4603C36.9468 17.9616 36.9826 17.4925 37.0671 16.9876C37.224 16.5377 37.6655 16.7647 37.9547 16.5463C37.6936 16.3383 37.2949 16.5309 37.0991 16.1859C36.994 15.7509 36.9075 15.3518 37.1866 14.9415Z" fill="#F98662"/>
<path id="Vector_7" d="M33.7247 36.0127C32.0172 38.2875 32.0059 40.6694 33.7013 42.8509C33.7247 42.9087 33.7307 42.9405 33.6889 42.9633C32.1882 42.3731 30.9501 41.4569 29.7663 40.4585C29.4802 40.2172 29.2206 39.9445 28.9381 39.6984C28.7631 39.546 28.7292 39.4347 28.9189 39.2516C30.2987 37.9197 31.8074 36.7749 33.6022 35.9831C33.6683 35.9734 33.7008 35.9688 33.7247 36.0127Z" fill="#FDFCFD"/>
<path id="Vector_8" d="M12.596 43.8316C10.034 43.8696 7.50625 43.877 4.97845 43.8792C4.56035 43.8795 4.3589 43.6282 4.31733 43.2367C4.20635 42.1915 4.20892 42.1909 5.26449 42.1916C7.66774 42.1933 10.071 42.1953 12.5178 42.2029C12.9215 42.7242 12.8392 43.259 12.596 43.8316Z" fill="#D3E06F"/>
<path id="Vector_9" d="M20.0296 42.2391C22.5443 42.2036 25.027 42.2019 27.5096 42.1892C27.781 42.1878 27.88 42.2902 27.8507 42.5462C27.849 42.5616 27.8503 42.5774 27.8508 42.593C27.884 43.7866 27.794 43.8811 26.614 43.8807C24.4902 43.8801 22.3664 43.8784 20.1991 43.8705C19.7938 43.3631 19.9127 42.8147 20.0296 42.2391Z" fill="#C1DB6B"/>
<path id="Vector_10" d="M20.018 42.203C20.1954 42.7255 20.1499 43.2533 20.1557 43.8209C17.6533 43.8684 15.1511 43.873 12.6054 43.8708C12.5618 43.3406 12.5618 42.8171 12.5615 42.2511C15.0324 42.2049 17.5034 42.2011 20.018 42.203Z" fill="#CBDE6D"/>
<path id="Vector_11" d="M16.0926 4.34364C18.2524 4.30428 20.3796 4.29932 22.5503 4.30173C22.91 4.73897 22.8984 5.53438 22.5346 5.94985C20.4032 5.98307 18.3074 5.98711 16.1681 5.985C15.7673 5.45874 15.8457 4.92113 16.0926 4.34364Z" fill="#C7DE6C"/>
<path id="Vector_12" d="M10.3466 5.94943C8.37173 5.98342 6.43185 5.98797 4.44818 5.98748C4.38898 5.97223 4.37356 5.96202 4.34163 5.92952C4.24221 4.34372 4.297 4.28397 5.83218 4.28563C7.32796 4.28724 8.82375 4.29069 10.3629 4.30118C10.721 4.73531 10.7099 5.46591 10.3466 5.94943Z" fill="#D5E16F"/>
<path id="Vector_13" d="M40.18 35.919C42.6279 37.489 42.6575 41.1786 40.247 43.0166C39.993 42.9152 40.0164 42.6987 40.0074 42.5042C39.9866 42.0586 40.0071 41.6121 39.9922 41.1663C39.986 40.9838 40.0026 40.7943 39.8622 40.599C39.7831 40.4668 39.7592 40.3588 39.7923 40.2526C39.9589 39.7195 39.9072 39.1861 39.8104 38.6101C39.9823 37.9169 39.8662 37.2515 39.9105 36.5939C39.9265 36.3554 39.8746 36.0885 40.18 35.919Z" fill="#FB8963"/>
<path id="Vector_14" d="M10.3552 5.98509C10.4192 5.45603 10.4124 4.92635 10.4063 4.35287C12.2836 4.30398 14.1609 4.29894 16.0817 4.30157C16.1249 4.83746 16.1247 5.36568 16.1245 5.93637C14.2159 5.983 12.3074 5.98715 10.3552 5.98509Z" fill="#CEDF6E"/>
<path id="Vector_15" d="M34.9948 42.9763C32.6025 41.3358 32.572 37.8263 34.9246 35.9485C35.2285 36.0802 35.2542 36.3506 35.2672 36.6093C35.2921 37.1002 35.3113 37.593 35.2481 38.083C35.2301 38.2219 35.2089 38.3569 35.2875 38.5299C35.3627 39.1068 35.2264 39.6463 35.3148 40.2237C35.1454 40.8583 35.3503 41.4545 35.2846 42.0498C35.2495 42.3677 35.2934 42.7015 34.9948 42.9763Z" fill="#F8AA6E"/>
<path id="Vector_16" d="M37.1744 14.9041C37.218 15.3067 37.2181 15.7033 37.2181 16.1412C37.1531 16.4581 36.92 16.4073 36.729 16.4295C36.4924 16.4571 36.2427 16.4011 35.9501 16.5318C36.3814 16.8056 36.8922 16.4697 37.2175 16.8862C37.2182 17.3937 37.2183 17.8683 37.2183 18.3838C37.1599 18.5975 37.0198 18.6596 36.8579 18.6642C36.0572 18.6868 35.2552 18.7535 34.4184 18.5909C34.0681 18.1017 34.206 17.5897 34.2296 17.0541C34.2642 16.9598 34.2207 17.0257 34.2562 16.9755C34.4921 16.6416 34.5142 16.4038 34.0089 16.365C33.9232 16.3584 33.8565 16.272 33.8037 16.1503C33.7111 15.726 33.6308 15.3371 33.9058 14.9415C35.0012 14.9068 36.066 14.9025 37.1744 14.9041Z" fill="#F79166"/>
<path id="Vector_17" d="M22.5426 5.98515C22.6345 5.45791 22.5864 4.92579 22.5938 4.35305C24.107 4.30296 25.6202 4.28859 27.1334 4.29557C27.6055 4.29775 27.8243 4.5539 27.8458 5.03847C27.8883 5.99444 27.8883 5.99499 26.9402 5.99457C25.4889 5.99392 24.0376 5.99242 22.5426 5.98515Z" fill="#C0DB6B"/>
<path id="Vector_18" d="M36.2216 22.6427C35.2472 22.6796 34.3074 22.6837 33.324 22.6816C32.9363 22.3371 33.0836 21.9264 33.1268 21.498C33.2147 21.2301 33.4032 21.1847 33.6128 21.1707C33.766 21.1604 33.9203 21.1671 34.0724 21.1457C34.1621 21.1331 34.2705 21.1198 34.2665 20.9962C34.2637 20.9095 34.1839 20.8739 34.107 20.8556C33.929 20.8133 33.7369 20.7999 33.623 20.5731C33.4972 20.0647 33.4767 19.5954 33.6741 19.0924C33.8347 18.9206 34.0111 18.9153 34.1784 18.9168C34.8399 18.9229 35.506 18.8246 36.1988 19.0249C36.3511 19.2109 36.3934 19.3901 36.3977 19.579C36.4176 20.4464 36.4195 21.3139 36.3961 22.1812C36.392 22.3346 36.386 22.4943 36.2216 22.6427Z" fill="#FB9466"/>
<path id="Vector_19" d="M36.2305 22.6815C36.187 21.5323 36.1871 20.3892 36.1871 19.2045C36.2357 19.034 36.3321 18.9517 36.465 18.9436C37.0368 18.9091 37.612 18.8171 38.2062 19.0505C38.4475 19.9187 38.3039 20.7659 38.3413 21.6056C38.3559 21.933 38.3435 22.2616 38.3431 22.6327C37.6533 22.6797 36.9637 22.6836 36.2305 22.6815Z" fill="#FC8D64"/>
<path id="Vector_20" d="M31.6888 42.8419C32.2999 43.1687 32.878 43.4849 33.4561 43.8012C33.4519 43.8265 33.4477 43.8518 33.4435 43.8771C32.8449 43.8771 32.2463 43.8772 31.6477 43.8771C30.7123 43.877 29.777 43.8756 28.8416 43.8774C28.6343 43.8778 28.4983 43.8814 28.5684 43.576C28.6366 43.2792 28.6053 42.9549 28.5874 42.6444C28.5704 42.3505 28.6941 42.2694 28.9702 42.2742C29.3713 42.281 29.7738 42.3116 30.173 42.1956C30.4333 42.1199 30.6857 42.1116 30.9222 42.3544C31.1207 42.5583 31.4079 42.6757 31.6888 42.8419Z" fill="black"/>
<path id="Vector_21" d="M40.2006 35.8771C40.036 36.607 40.1651 37.3254 40.1233 38.0361C40.112 38.2292 40.1905 38.4473 39.9582 38.6142C39.6323 38.9492 39.2791 38.944 38.9121 38.8053C38.542 38.6654 38.284 38.4183 38.2411 38.0019C38.2097 37.696 38.2234 37.3858 38.1577 37.0394C38.168 36.5148 38.2296 36.0369 38.2327 35.5557C38.2336 35.4169 38.2503 35.2745 38.4058 35.1495C39.0922 35.203 39.6575 35.478 40.2006 35.8771Z" fill="#FA9166"/>
<path id="Vector_22" d="M33.8929 14.9053C33.9363 15.3071 33.9363 15.703 33.936 16.1402C33.8642 16.3745 33.6973 16.4139 33.5234 16.4202C32.55 16.4556 31.5765 16.4543 30.6031 16.421C30.4627 16.4162 30.3255 16.3877 30.2081 16.2244C30.187 15.7866 30.1872 15.3921 30.1871 14.9548C31.4078 14.9078 32.6286 14.9036 33.8929 14.9053Z" fill="#FA9F6A"/>
<path id="Vector_23" d="M33.2582 21.3542C33.2806 21.7946 33.2807 22.1925 33.2806 22.6329C32.1845 22.6797 31.0887 22.6839 29.9492 22.682C29.9057 22.2775 29.9058 21.8791 29.9059 21.4386C29.9748 21.2243 30.1253 21.1837 30.2851 21.1765C31.1562 21.1371 32.0276 21.1383 32.8988 21.1758C33.0246 21.1812 33.1463 21.2098 33.2582 21.3542Z" fill="#F9A06B"/>
<path id="Vector_24" d="M39.9083 40.4989C40.2238 40.6062 40.2156 40.8501 40.217 41.0827C40.2207 41.7017 40.2181 42.3208 40.2177 42.9834C39.722 43.4441 39.1483 43.6874 38.4759 43.7953C38.2316 43.6722 38.2319 43.464 38.2249 43.2628C38.2114 42.8757 38.2162 42.4883 38.2067 42.062C38.2226 41.836 38.315 41.6956 38.4773 41.6109C38.9257 41.377 39.3275 41.0933 39.5939 40.6477C39.6521 40.5504 39.7566 40.5057 39.9083 40.4989Z" fill="#FA9165"/>
<path id="Vector_25" d="M34.9751 43.0188C35.1696 42.1023 34.9714 41.1825 35.1387 40.2507C35.364 40.1636 35.4392 40.3167 35.5115 40.451C35.7469 40.8882 36.0915 41.2206 36.4952 41.4969C36.6579 41.6083 36.7793 41.7393 36.7849 41.9879C36.7803 42.4297 36.7931 42.8318 36.7726 43.2335C36.7622 43.4373 36.7498 43.6427 36.4701 43.7221C35.8893 43.6187 35.4263 43.3629 34.9751 43.0188Z" fill="#F8A26C"/>
<path id="Vector_26" d="M35.2366 38.6373C35.0275 38.4776 35.067 38.2664 35.0633 38.0676C35.0508 37.3853 35.1116 36.6993 34.9581 35.9789C35.3668 35.5696 35.857 35.3582 36.4127 35.1978C36.6797 35.2828 36.7667 35.4619 36.7709 35.7002C36.7779 36.1003 36.8128 36.5009 36.7241 36.9372C36.6997 37.1489 36.6696 37.3143 36.5126 37.4231C36.1019 37.7079 35.754 38.0524 35.4972 38.4852C35.4487 38.5671 35.3668 38.6147 35.2366 38.6373Z" fill="#F8A26C"/>
<path id="Vector_27" d="M36.5894 37.1604C36.5227 36.5112 36.6499 35.8856 36.4644 35.2324C37.0817 34.9876 37.728 35.0447 38.4089 35.1103C38.4214 35.7372 38.4835 36.3522 38.3435 36.9968C37.7762 37.1973 37.2003 37.246 36.5894 37.1604Z" fill="#FA9B69"/>
<path id="Vector_28" d="M36.4603 43.7346C36.6316 43.492 36.5371 43.2156 36.5634 42.9601C36.5992 42.6126 36.4658 42.2461 36.7107 41.888C36.8281 41.755 36.9465 41.6931 37.0693 41.7274C37.4727 41.8402 37.9006 41.6827 38.32 41.8817C38.5175 42.504 38.4055 43.1085 38.4381 43.7503C37.7868 43.9304 37.1385 43.9164 36.4603 43.7346Z" fill="#FA9B69"/>
<path id="Vector_29" d="M33.6555 35.999C33.6722 35.9186 33.7322 35.8876 33.7878 35.9245C33.8416 35.9602 33.7815 35.9957 33.7364 36.0439C33.7024 36.0475 33.6889 36.0337 33.6555 35.999Z" fill="#FDFCFD"/>
<path id="Vector_30" d="M33.6992 42.8961C33.7511 42.9178 33.8348 42.9352 33.7938 43.0071C33.7848 43.0228 33.7135 43.0031 33.6561 42.977C33.654 42.9413 33.6668 42.9283 33.6992 42.8961Z" fill="#FDFCFD"/>
<path id="Vector_31" d="M4.32593 5.92973C4.34554 5.92085 4.3641 5.9366 4.39264 5.96847C4.40443 5.98245 4.35942 5.98312 4.35942 5.98312C4.35942 5.98312 4.32669 5.95222 4.32593 5.92973Z" fill="#CAD56D"/>
<path id="Vector_32" d="M21.5625 27.6796C20.2518 27.6796 18.9879 27.6697 17.7242 27.6851C17.3102 27.6901 17.1365 27.5559 17.1403 27.1184C17.1567 25.2608 17.1482 23.4028 17.1462 21.545C17.146 21.2805 17.1569 21.0035 17.5033 21.0067C17.8547 21.0099 17.8488 21.3007 17.8489 21.5563C17.8498 23.2112 17.8616 24.8662 17.8405 26.5208C17.8357 26.9017 17.9557 27.0075 18.3177 26.9835C18.753 26.9545 19.1934 26.9515 19.6281 26.984C20.0237 27.0136 20.165 26.9179 20.1565 26.4804C20.1258 24.8886 20.1443 23.2958 20.1446 21.7034C20.1447 21.5785 20.14 21.4529 20.1517 21.329C20.1704 21.1326 20.2836 21.0092 20.4822 21.0022C20.6819 20.995 20.8054 21.1095 20.8297 21.3071C20.8467 21.4458 20.8435 21.5875 20.8436 21.7278C20.8444 23.3202 20.8532 24.9127 20.8371 26.505C20.8336 26.8565 20.904 27.0176 21.2969 26.9849C21.731 26.9487 22.1725 26.9504 22.607 26.9843C23.0075 27.0155 23.1442 26.9076 23.1368 26.4775C23.1091 24.8855 23.1254 23.2928 23.1265 21.7004C23.1266 21.5602 23.1233 21.418 23.1444 21.2803C23.1713 21.105 23.2902 21.0063 23.4673 21.0008C23.6469 20.9952 23.764 21.0977 23.8055 21.2647C23.8313 21.3685 23.8241 21.4816 23.8241 21.5905C23.8251 23.4171 23.8259 25.2437 23.8242 27.0703C23.8236 27.6333 23.7781 27.6762 23.2018 27.679C22.671 27.6815 22.1402 27.6796 21.5625 27.6796Z" fill="#703854"/>
<path id="Vector_33" d="M15.9375 11.6383C15.3754 11.6383 14.8597 11.652 14.3452 11.6328C14.068 11.6225 13.9561 11.6908 13.9681 11.9929C13.9916 12.5853 13.9899 13.1798 13.9688 13.7723C13.9581 14.0699 14.0347 14.1769 14.3519 14.1695C15.2569 14.1482 16.1628 14.1631 17.0684 14.1614C17.3461 14.1609 17.6453 14.1628 17.6332 14.5412C17.6223 14.8817 17.338 14.8908 17.0782 14.8908C16.1726 14.8909 15.2668 14.9029 14.3617 14.8844C14.0584 14.8783 13.9548 14.9609 13.968 15.2733C13.9925 15.85 13.992 16.4291 13.9682 17.0058C13.9553 17.3183 14.0609 17.4034 14.3646 17.4C15.6447 17.3855 16.925 17.3936 18.2053 17.3945C18.33 17.3946 18.4557 17.3935 18.5791 17.4081C18.777 17.4317 18.8987 17.5588 18.8993 17.75C18.8998 17.9374 18.7877 18.0713 18.5887 18.0996C18.4965 18.1127 18.4019 18.1118 18.3084 18.1118C16.8252 18.1125 15.3418 18.1008 13.8588 18.1192C13.4073 18.1248 13.253 17.95 13.2558 17.5116C13.2682 15.5141 13.2668 13.5164 13.2566 11.5188C13.2545 11.108 13.3921 10.9245 13.8279 10.9291C15.3422 10.9452 16.8568 10.9371 18.3712 10.9338C18.6454 10.9332 18.9102 10.9752 18.8955 11.3099C18.8822 11.6097 18.6279 11.6423 18.3732 11.6404C17.577 11.6344 16.7807 11.6383 15.9375 11.6383Z" fill="#753D59"/>
<path id="Vector_34" d="M18.9184 34.2188C18.9182 34.9215 18.9124 35.5775 18.9202 36.2333C18.9244 36.5837 18.7755 36.7511 18.4177 36.75C16.856 36.7455 15.2943 36.7462 13.7327 36.7494C13.3733 36.7501 13.2312 36.569 13.2319 36.2253C13.2353 34.6793 13.2345 33.1332 13.2322 31.5871C13.2318 31.3273 13.2949 31.0862 13.5906 31.0836C13.9207 31.0805 13.9652 31.3422 13.9645 31.616C13.9611 32.9279 13.9729 34.2398 13.9563 35.5514C13.952 35.8912 14.0031 36.0826 14.4026 36.0254C14.8286 35.9645 15.3852 36.2145 15.6565 35.9197C15.901 35.6539 15.7222 35.114 15.7257 34.6954C15.7345 33.6647 15.7309 32.6339 15.7272 31.6032C15.7263 31.3517 15.7497 31.0955 16.0575 31.0829C16.3981 31.0689 16.4318 31.3347 16.4312 31.606C16.4283 32.9335 16.4433 34.2611 16.4214 35.5882C16.4155 35.947 16.5232 36.0554 16.8704 36.027C17.2881 35.9928 17.8465 36.1629 18.0935 35.9517C18.3821 35.705 18.1788 35.1309 18.1853 34.7001C18.2005 33.6852 18.1923 32.67 18.1889 31.6549C18.1879 31.3731 18.2007 31.074 18.5672 31.0849C18.8929 31.0945 18.9206 31.3749 18.9195 31.642C18.9162 32.4853 18.9183 33.3286 18.9184 34.2188Z" fill="#763F5A"/>
<path id="Vector_35" d="M8.41472 21.5781C8.24726 21.1833 8.40525 21.0019 8.76512 20.9998C10.2177 20.9915 11.6703 20.9979 13.1229 20.9947C13.4606 20.994 13.5967 21.1599 13.5961 21.4874C13.5924 23.3929 13.5917 25.2985 13.5967 27.204C13.5975 27.5424 13.444 27.6833 13.1135 27.6824C11.6766 27.6783 10.2396 27.6803 8.8026 27.6808C8.56403 27.6809 8.34434 27.6331 8.33793 27.3436C8.33082 27.0228 8.5644 26.9805 8.82184 26.9809C10.0245 26.983 11.2275 26.9674 12.4297 26.9904C12.7872 26.9972 12.8911 26.8925 12.8698 26.5434C12.8404 26.061 12.8465 25.5748 12.8682 25.0916C12.8818 24.7898 12.7901 24.685 12.4779 24.6927C11.6662 24.7126 10.8536 24.6999 10.0414 24.6984C9.88612 24.6982 9.72309 24.7114 9.59831 24.5925C9.5035 24.5022 9.4422 24.3869 9.49102 24.255C9.56561 24.0533 9.72263 23.9875 9.93456 23.9892C10.7623 23.9958 11.5906 23.9765 12.4178 23.999C12.7512 24.008 12.8964 23.942 12.8709 23.5701C12.8367 23.0726 12.8464 22.5703 12.8684 22.0715C12.8814 21.7778 12.7751 21.7025 12.4948 21.7057C11.3391 21.719 10.1832 21.7125 9.02738 21.7099C8.82736 21.7095 8.61775 21.7476 8.41472 21.5781Z" fill="#743C58"/>
<path id="Vector_36" d="M7.22008 36.7485C6.87668 36.7484 6.57957 36.7404 6.28306 36.7503C5.93577 36.7619 5.75186 36.6136 5.75195 36.2575C5.75237 34.6802 5.75155 33.1028 5.75312 31.5255C5.75343 31.2208 5.91155 31.0618 6.21695 31.0614C7.40434 31.06 8.59173 31.0592 9.77912 31.0622C10.019 31.0629 10.2322 31.1376 10.2272 31.4237C10.2216 31.7364 9.99156 31.7846 9.73359 31.7839C8.76494 31.7813 7.79604 31.7947 6.82775 31.7758C6.53417 31.77 6.44664 31.8561 6.46655 32.1434C6.49766 32.5925 6.3256 33.1788 6.54974 33.4578C6.78801 33.7543 7.3977 33.5286 7.84445 33.5501C8.18739 33.5666 8.53173 33.5531 8.87545 33.5545C9.11065 33.5554 9.27826 33.6556 9.27993 33.9061C9.28163 34.163 9.09832 34.2558 8.87216 34.258C8.18479 34.2646 7.49711 34.2725 6.81001 34.2582C6.54438 34.2527 6.45122 34.3378 6.46765 34.6046C6.49528 35.0535 6.33319 35.6255 6.55323 35.9193C6.76594 36.2032 7.36952 35.9947 7.80071 36.0055C8.44088 36.0216 9.08174 36.0105 9.72231 36.0096C9.9764 36.0093 10.2193 36.0561 10.2253 36.3653C10.2319 36.7039 9.97735 36.7501 9.7039 36.7492C8.89149 36.7468 8.07906 36.7484 7.22008 36.7485Z" fill="#763F5A"/>
<path id="Vector_37" d="M25.7527 36.7486C24.6314 36.7486 23.5538 36.7476 22.4762 36.7493C22.2098 36.7497 21.939 36.7253 21.9382 36.3841C21.9374 36.0392 22.2133 36.0205 22.477 36.0206C23.414 36.0211 24.3514 36.0053 25.2879 36.0289C25.6259 36.0374 25.7207 35.9293 25.695 35.6071C25.6677 35.2657 25.6751 34.9197 25.6932 34.5771C25.7065 34.3269 25.6095 34.2554 25.3708 34.2597C24.7151 34.2714 24.059 34.263 23.4031 34.2629C23.1547 34.2629 22.8958 34.2326 22.8863 33.9234C22.8758 33.5826 23.1394 33.5494 23.4114 33.5516C24.0516 33.5567 24.6925 33.5373 25.332 33.5601C25.6288 33.5708 25.7123 33.4724 25.6936 33.1893C25.664 32.7407 25.8336 32.152 25.6083 31.8779C25.3698 31.5878 24.7598 31.8018 24.3127 31.7906C23.6728 31.7745 23.0322 31.7842 22.3919 31.7872C22.145 31.7884 21.9435 31.7181 21.9353 31.4385C21.9269 31.1527 22.1364 31.0726 22.3774 31.0719C23.5643 31.0684 24.7513 31.0696 25.9382 31.07C26.269 31.0701 26.4174 31.2435 26.417 31.5683C26.4152 33.1297 26.4149 34.6911 26.4171 36.2525C26.4177 36.684 26.1553 36.7735 25.7527 36.7486Z" fill="#76405B"/>
<path id="Vector_38" d="M33.3236 21.3909C32.1847 21.3928 31.0889 21.3889 29.9494 21.3907C29.5809 21.3911 29.256 21.3811 28.9311 21.3818C28.6709 21.3824 28.3913 21.3763 28.3763 21.0417C28.3614 20.7096 28.6296 20.6617 28.8959 20.6561C28.9578 20.6548 29.0196 20.6512 29.1188 20.6412C29.2999 20.4304 29.5174 20.4145 29.7365 20.4107C30.2619 20.4016 30.7876 20.3876 31.3589 20.4285C31.9773 20.3914 32.5501 20.3968 33.1226 20.4107C33.32 20.4155 33.5313 20.3959 33.7177 20.6008C33.9205 20.644 34.0918 20.6472 34.2615 20.6652C34.4902 20.6893 34.6568 20.8082 34.6402 21.0514C34.6257 21.2651 34.4691 21.3732 34.2532 21.3766C33.9577 21.3813 33.6621 21.3824 33.3236 21.3909Z" fill="#783D54"/>
<path id="Vector_39" d="M30.1435 16.1883C31.4076 16.1856 32.6283 16.1902 33.8924 16.1881C34.0898 16.19 34.2437 16.2049 34.3978 16.2057C34.6212 16.2068 34.8152 16.2728 34.843 16.5151C34.8712 16.76 34.7013 16.8705 34.4401 16.9104C34.2399 17.0565 34.044 17.0905 33.8371 17.0912C33.1211 17.0933 32.405 17.1184 31.6436 17.071C31.0205 17.109 30.4425 17.1007 29.8648 17.0911C29.679 17.088 29.4867 17.0961 29.288 16.9449C29.0785 16.9116 28.9086 16.901 28.7386 16.8916C28.5183 16.8795 28.3817 16.7662 28.3851 16.5445C28.3885 16.3213 28.5339 16.2125 28.7511 16.2089C29.2008 16.2016 29.6505 16.1996 30.1435 16.1883Z" fill="#713753"/>
<path id="Vector_40" d="M29.2488 16.9623C30.0005 16.9164 30.7525 16.9112 31.5475 16.9137C31.8917 17.2981 31.8997 18.0818 31.568 18.5522C30.7773 18.7145 30.0261 18.8282 29.2691 18.4671C29.2496 17.9497 29.2494 17.4763 29.2488 16.9623Z" fill="#F9A46C"/>
<path id="Vector_41" d="M31.4397 20.5974C30.6856 20.639 29.9644 20.6438 29.1997 20.6413C29.1563 20.171 29.1562 19.7083 29.1561 19.2041C29.2109 19.0113 29.3319 18.9435 29.48 18.9358C30.1162 18.903 30.754 18.8386 31.4248 19.0217C31.6934 19.5531 31.712 20.0562 31.4397 20.5974Z" fill="#F9A56D"/>
<path id="Vector_42" d="M31.4502 19.1435C30.6847 19.143 29.9638 19.1454 29.1995 19.1552C29.017 19.1538 28.8778 19.1451 28.7387 19.1359C28.5206 19.1215 28.382 19.0109 28.3847 18.7877C28.3873 18.5627 28.5325 18.4595 28.7495 18.4511C28.889 18.4458 29.0286 18.4427 29.209 18.4308C29.9696 18.4376 30.6893 18.4521 31.4523 18.4733C31.8415 18.7524 31.8414 18.8576 31.4502 19.1435Z" fill="#713853"/>
<path id="Vector_43" d="M38.2541 19.0563C37.5864 19.2055 36.9279 19.103 36.2305 19.1554C35.4037 19.1579 34.6203 19.1528 33.7936 19.1551C33.5319 19.3325 33.3045 19.3706 33.0754 19.1905C32.902 19.0542 32.836 18.8699 32.9022 18.6561C32.987 18.3822 33.1974 18.2749 33.4676 18.2691C33.7569 18.2629 34.0538 18.2024 34.364 18.3972C35.3142 18.4287 36.2229 18.4343 37.1749 18.4324C37.4494 18.4337 37.6807 18.4394 37.9117 18.4522C38.3001 18.4736 38.4538 18.6458 38.2541 19.0563Z" fill="#713753"/>
<path id="Vector_44" d="M37.2604 16.9113C36.7969 16.9103 36.3756 16.9012 35.9543 16.8924C35.7246 16.8877 35.5395 16.8042 35.5426 16.5488C35.5457 16.2962 35.7314 16.2105 35.9601 16.2075C36.3505 16.2023 36.741 16.1999 37.1747 16.1894C37.4812 16.1924 37.7447 16.1973 38.0075 16.2137C38.2016 16.2259 38.3329 16.3291 38.3425 16.5311C38.3534 16.7596 38.2162 16.8731 38.0003 16.886C37.7682 16.8997 37.5353 16.8983 37.2604 16.9113Z" fill="#723853"/>
<path id="Vector_45" d="M38.3715 41.8974C37.8285 42.0264 37.3163 42.036 36.7754 41.8656C36.0065 41.5428 35.4814 41.0238 35.1799 40.2431C35.0607 39.7146 35.0266 39.2123 35.1913 38.6747C35.4707 37.9964 35.894 37.4939 36.5418 37.1519C37.1227 36.9586 37.6853 36.8427 38.3043 37.0296C38.4465 37.1825 38.4662 37.3399 38.4505 37.5189C38.3748 38.3811 38.7205 38.7187 39.5713 38.6327C39.6631 38.6234 39.7563 38.6294 39.8868 38.6294C40.2676 39.2245 40.1465 39.8256 39.9485 40.4642C39.58 41.1288 39.1093 41.6382 38.3715 41.8974Z" fill="#713853"/>
<path id="Vector_46" d="M34.4055 18.3825C34.1259 18.4314 33.8464 18.4465 33.5669 18.446C33.3025 18.4456 33.0236 18.4603 33.0239 18.7982C33.024 19.1007 33.2805 19.1464 33.533 19.1414C33.5796 19.1405 33.6262 19.1457 33.7116 19.1552C33.7502 19.6234 33.7501 20.0844 33.75 20.5898C32.9979 20.6392 32.2457 20.6443 31.4502 20.6417C31.4065 20.1648 31.4062 19.6954 31.4058 19.1834C31.628 18.9781 31.6896 18.7826 31.512 18.5107C31.6826 17.9976 31.5584 17.4949 31.5913 16.9619C32.5001 16.9159 33.4094 16.9103 34.3621 16.9123C34.4055 17.3938 34.4055 17.8678 34.4055 18.3825Z" fill="#F79B69"/>
</g>
</svg>
