<svg width="32" height="32" viewBox="0 0 32 32" fill="none" xmlns="http://www.w3.org/2000/svg">
<g id="fire-extinguisher-alt 3">
<path id="Vector" d="M26.6368 7.73439C25.5296 6.74879 24.4288 5.75679 23.3408 4.75199C23.1136 4.54079 22.88 4.46399 22.5792 4.45119C21.4592 4.41599 20.3424 4.35199 19.2224 4.32639C18.8832 4.31679 18.736 4.20479 18.6432 3.86559C18.3648 2.87679 17.5104 2.23359 16.5056 2.20479C15.5744 2.17919 14.6656 2.79359 14.3328 3.67359C13.9744 4.61759 14.1856 5.78559 15.0784 6.24639C15.9616 6.70719 15.9392 7.33759 15.9008 8.08959C15.888 8.31679 15.8752 8.55039 15.904 8.77439C15.9488 9.13279 15.7888 9.32479 15.4848 9.48159C14.9632 9.75359 14.4768 10.0864 13.9488 10.3488C13.0496 10.7968 12.672 11.4848 12.6848 12.4992C12.72 15.1552 12.6976 17.8176 12.6976 20.4736C12.6976 23.2256 12.6944 25.9808 12.6976 28.7328C12.6976 29.6192 13.0592 29.9936 13.9264 29.9936C16.6432 29.9968 19.36 29.9968 22.0736 29.9936C22.8928 29.9936 23.296 29.5904 23.296 28.7648C23.3024 23.2576 23.2992 17.7504 23.296 12.2432C23.296 11.4784 22.96 10.896 22.2944 10.5088C21.7856 10.2144 21.2928 9.89119 20.7616 9.63839C20.256 9.39839 20.0544 9.08799 20.0768 8.50239C20.1344 7.16159 20.1024 7.19999 21.4144 6.92479C22.0928 6.78079 22.6528 6.86719 23.2416 7.22559C24.1152 7.75359 25.0368 8.21119 25.9328 8.70399C26.272 8.88959 26.6208 9.05279 26.8928 8.65919C27.152 8.29439 26.9344 7.99999 26.6368 7.73439ZM16.4736 5.47199C15.9648 5.47839 15.4816 5.00479 15.4848 4.49599C15.488 3.99999 15.9232 3.55519 16.4256 3.53919C16.976 3.51999 17.4048 3.92959 17.4176 4.47679C17.4304 5.01759 17.008 5.46559 16.4736 5.47199ZM21.5424 27.3248C21.5232 27.696 21.2672 27.9232 20.8992 27.904C20.56 27.888 20.3456 27.6608 20.3232 27.3088C20.304 27.0272 20.32 26.7392 20.32 26.4576H20.3168C20.3168 26.192 20.3008 25.9264 20.32 25.6608C20.3488 25.2896 20.5536 25.0624 20.9408 25.0656C21.2992 25.0656 21.5232 25.28 21.5424 25.6224C21.5744 26.1856 21.5744 26.7584 21.5424 27.3248ZM20.3104 12.4224C20.3104 12.2528 20.3104 12.08 20.3424 11.9136C20.4032 11.5872 20.624 11.4208 20.944 11.4208C21.2384 11.4208 21.4496 11.584 21.52 11.8784C21.5616 12.0608 21.568 12.2528 21.568 12.4416C21.5712 14.1856 21.5712 15.9328 21.5712 17.6768V22.912C21.5712 23.104 21.5712 23.2928 21.536 23.4784C21.4752 23.8016 21.2608 23.968 20.9312 23.9648C20.6016 23.9616 20.3968 23.7888 20.3424 23.4624C20.3136 23.2928 20.3136 23.1232 20.3136 22.9536C20.3072 19.4464 20.3072 15.936 20.3104 12.4224ZM13.088 4.55359V4.04159C13.088 3.26719 13.088 3.25119 12.3168 3.26719C11.9168 3.27679 11.5744 3.25439 11.3984 2.80639C11.3024 2.56639 11.0304 2.55679 10.8064 2.53439C9.0304 2.35839 7.2544 2.19199 5.4816 2.00319C5.12 1.96479 4.9952 2.08319 4.9984 2.42239C5.0048 3.77279 5.0016 5.11999 4.9984 6.46719C4.9984 6.79039 5.0816 6.95039 5.4656 6.90559C7.2384 6.71359 9.0144 6.54399 10.7872 6.37439C11.0848 6.34559 11.3536 6.28479 11.4816 5.97119C11.5808 5.72799 11.76 5.66079 12.0192 5.65439C13.088 5.63199 13.088 5.62239 13.088 4.55359Z" fill="black"/>
</g>
</svg>
