<svg width="48" height="48" viewBox="0 0 48 48" fill="none" xmlns="http://www.w3.org/2000/svg">
<g id="Gynecologist">
<path id="Vector" d="M8.33972 34.489C8.83282 32.5691 9.32149 30.648 9.8202 28.7295C10.3657 26.631 10.9773 24.5477 11.4547 22.4339C11.897 20.4753 12.2579 18.4936 12.547 16.5064C12.7895 14.8391 12.8285 13.1429 13.0446 11.4707C13.3461 9.13722 14.3558 7.16787 16.2154 5.65791C17.9805 4.22468 20.0006 3.45592 22.237 3.18057C24.9769 2.84324 27.6285 3.14639 30.0945 4.41921C32.8479 5.84036 34.63 8.03574 35.0615 11.1831C35.1624 11.9186 35.1778 12.6653 35.2525 13.4049C35.3722 14.5901 35.4274 15.7894 35.6542 16.9547C36.1949 19.7328 36.7679 22.5069 37.4259 25.2592C38.0489 27.8646 38.8009 30.439 39.4858 33.0299C39.604 33.4767 39.6703 33.9373 39.7274 34.4325C38.5778 33.8966 37.4613 33.3198 36.3304 32.7166C35.9806 31.2707 35.1618 30.2189 33.873 29.5489C32.3155 28.7391 30.6286 28.5099 28.8918 28.4587C28.8787 28.1 28.8725 27.7838 28.8836 27.4411C31.2698 25.6619 32.4547 23.3288 32.3873 20.3556C33.3753 19.9706 34.0095 19.3046 34.183 18.2793C34.255 17.8537 34.2219 17.4087 34.221 16.9725C34.2183 15.6308 33.6228 14.7814 32.3614 14.2634C32.3609 13.6336 32.3609 13.0454 32.3609 12.4437C32.1803 12.4235 32.0586 12.4013 31.9364 12.3977C30.1967 12.3468 28.4882 12.0811 26.8102 11.6281C24.7027 11.0591 22.6907 10.2752 20.9525 8.90975C20.258 8.36421 20.2641 8.35639 19.4926 8.84176C19.4794 8.85006 19.4676 8.8605 19.4544 8.86889C17.8133 9.91613 16.8631 11.4919 16.1375 13.2324C15.9957 13.5724 15.9258 13.9424 15.7908 14.3109C14.8676 14.6602 14.2551 15.2645 14.0542 16.209C13.9713 16.5991 13.9937 17.0118 13.9686 17.4142C13.8791 18.8465 14.4879 19.8396 15.8267 20.4138C15.7444 22.9194 16.6038 24.9973 18.396 26.6863C18.6895 26.9629 19.012 27.2089 19.3153 27.5116C19.3028 27.8698 19.2961 28.1853 19.2474 28.5006C18.4816 28.563 17.7532 28.5937 17.0348 28.6948C15.6452 28.8905 14.357 29.3589 13.2727 30.2826C12.4889 30.9503 12.0885 31.8498 11.7725 32.8116C11.2514 33.0111 10.7528 33.1862 10.2847 33.4218C9.62457 33.754 8.98697 34.1311 8.33972 34.489Z" fill="#3C4244"/>
<path id="Vector_2" d="M28.7844 45.1043C28.7204 45.1321 28.6565 45.1842 28.5925 45.1842C25.5432 45.1837 22.4939 45.1787 19.421 45.105C19.3539 44.9364 19.3176 44.833 19.2657 44.7381C18.3609 43.0823 17.5046 41.4041 16.9047 39.6082C16.4947 38.3811 16.4987 38.3759 17.5545 37.6751C17.6583 37.6062 17.7655 37.5417 17.8652 37.4673C18.1787 37.2329 18.4893 36.9947 18.8011 36.758C17.9839 36.5929 17.2133 36.537 16.4443 36.4639C16.1818 36.4389 15.8271 36.4854 15.8485 36.0574C15.8893 35.2365 15.9061 34.4102 16.0198 33.5983C16.1115 32.9429 16.3311 32.3055 16.5155 31.6379C17.0094 30.7377 17.6059 29.9626 18.4382 29.3502C18.7247 29.2074 18.9802 29.0713 19.2573 28.97C19.3028 29.7366 19.1941 30.5034 19.376 31.1935C19.8721 33.0753 20.489 34.9253 21.0662 36.7854C21.0996 36.8931 21.1877 37.0041 21.2811 37.0699C22.8742 38.1929 25.1578 38.2205 26.7944 37.131C26.9395 37.0344 27.0903 36.8792 27.1425 36.7197C27.9792 34.1658 29.1278 31.6795 28.9201 28.8963C29.2294 29.0556 29.5098 29.2046 29.8068 29.3809C30.671 29.972 31.1925 30.807 31.6958 31.6955C32.1802 33.0473 32.4001 34.4024 32.3477 35.8044C32.3255 36.3982 32.286 36.4329 31.6703 36.4735C30.9211 36.5229 30.1746 36.6118 29.2907 36.6967C29.971 37.182 30.5255 37.6284 31.1302 37.9912C31.5346 38.2338 31.6154 38.5233 31.4773 38.915C31.1415 39.8679 30.8399 40.8371 30.4331 41.7595C29.932 42.8958 29.3382 43.9912 28.7844 45.1043Z" fill="#D2E8F0"/>
<path id="Vector_3" d="M16.494 31.66C16.3311 32.3054 16.1116 32.9429 16.0198 33.5983C15.9061 34.4102 15.8894 35.2365 15.8485 36.0574C15.8272 36.4854 16.1818 36.4389 16.4443 36.4639C17.2133 36.5369 17.9839 36.5929 18.8012 36.758C18.4894 36.9947 18.1787 37.2329 17.8652 37.4672C17.7656 37.5417 17.6584 37.6061 17.5546 37.6751C16.4988 38.3759 16.4948 38.3811 16.9047 39.6082C17.5047 41.4041 18.3609 43.0823 19.2658 44.7381C19.3176 44.833 19.3539 44.9364 19.4003 45.0698C14.4407 45.1005 9.47819 45.1032 4.51577 45.0807C4.17541 45.0791 3.78787 44.957 3.51158 44.7634C3.29935 44.6147 3.12237 44.2702 3.11005 44.0044C2.99398 41.5006 3.84085 39.3187 5.3454 37.3408C6.18268 36.2401 7.20449 35.3554 8.30966 34.5016C8.98698 34.1311 9.62459 33.754 10.2847 33.4218C10.7529 33.1862 11.2514 33.0111 11.7789 32.852C11.7773 33.7929 11.7334 34.6907 11.6897 35.5826C10.2326 35.7868 9.20094 36.6996 9.114 37.9714C9.03962 39.0595 9.07713 40.1565 9.10076 41.2488C9.10375 41.3873 9.30266 41.6052 9.44573 41.6392C9.71139 41.7022 10.0113 41.6964 10.2799 41.6394C10.4119 41.6114 10.575 41.4141 10.594 41.2756C10.6078 41.1747 10.4285 41.0079 10.2989 40.9383C10.1767 40.8727 10.0069 40.8959 9.83614 40.8777C9.83614 40.6936 9.83573 40.5387 9.83621 40.3837C9.83849 39.6342 9.81614 38.8836 9.85004 38.1356C9.8885 37.2866 10.5854 36.5081 11.418 36.3879C11.8307 36.3283 12.2606 36.3341 12.6778 36.3693C13.4848 36.4373 14.2503 37.0537 14.3251 37.8566C14.4181 38.8543 14.3474 39.8672 14.3474 40.8953C14.2528 40.9017 14.1239 40.8739 14.0431 40.9239C13.8889 41.0191 13.7621 41.1588 13.6239 41.28C13.7702 41.4086 13.8974 41.5898 14.0679 41.6514C14.2476 41.7163 14.4686 41.6653 14.6716 41.6678C15.0277 41.6722 15.1741 41.4888 15.1719 41.1429C15.1658 40.1904 15.1901 39.2373 15.1619 38.2856C15.1333 37.3167 14.7096 36.5276 13.874 36.0279C13.4717 35.7874 12.9931 35.6743 12.5435 35.5013C12.5435 34.8214 12.5123 34.0906 12.5572 33.3645C12.5784 33.0218 12.7454 32.6882 12.8834 32.3504C14.1117 32.1201 15.3028 31.8901 16.494 31.66Z" fill="#E8FAFE"/>
<path id="Vector_4" d="M28.8279 45.0994C29.3381 43.9912 29.932 42.8958 30.4331 41.7595C30.8399 40.8371 31.1414 39.8679 31.4773 38.915C31.6153 38.5233 31.5346 38.2338 31.1302 37.9912C30.5255 37.6284 29.9709 37.182 29.2907 36.6967C30.1746 36.6118 30.9211 36.5229 31.6702 36.4735C32.286 36.4329 32.3255 36.3982 32.3477 35.8044C32.4001 34.4024 32.1802 33.0473 31.7373 31.6953C32.9659 31.8876 34.1547 32.1172 35.3674 32.3716C35.4974 32.9011 35.6623 33.4017 35.6964 33.9111C35.7551 34.789 35.7324 35.6722 35.7052 36.5548C34.2188 36.7792 33.3043 38.2858 33.7367 39.6771C34.1648 41.0543 35.8387 41.9154 37.2919 41.0823C38.1198 40.6077 38.6782 39.5748 38.5168 38.6447C38.3206 37.5139 37.4672 36.6547 36.4431 36.5064C36.4156 35.2236 36.3802 33.9833 36.3447 32.7429C37.4612 33.3198 38.5777 33.8966 39.7261 34.4711C40.707 35.1194 41.5827 35.8404 42.3331 36.7312C43.0334 37.5626 43.6601 38.4308 44.1261 39.4067C44.8325 40.8856 45.1897 42.4448 45.0937 44.0934C45.0637 44.6083 44.4578 45.0903 43.8178 45.0924C42.3965 45.097 40.9753 45.0937 39.5541 45.0938C35.9932 45.094 32.4323 45.0943 28.8279 45.0994Z" fill="#E9FBFF"/>
<path id="Vector_5" d="M32.3555 20.3664C32.4547 23.3288 31.2698 25.6619 28.8515 27.4463C26.7825 28.7964 24.5712 29.2098 22.2443 28.6576C21.2328 28.4175 20.2932 27.8744 19.321 27.469C19.0119 27.2089 18.6895 26.9629 18.396 26.6863C16.6038 24.9973 15.7444 22.9194 15.8305 20.3681C15.8323 18.2864 15.8275 16.2924 15.8228 14.2985C15.9258 13.9424 15.9957 13.5724 16.1374 13.2324C16.8631 11.4919 17.8133 9.91614 19.4544 8.86889C19.4675 8.8605 19.4794 8.85007 19.4926 8.84177C20.2641 8.3564 20.258 8.36422 20.9524 8.90975C22.6906 10.2752 24.7027 11.0591 26.8101 11.6281C28.4882 12.0811 30.1966 12.3468 31.9364 12.3977C32.0586 12.4013 32.1803 12.4236 32.3609 12.4437C32.3609 13.0454 32.3609 13.6336 32.3566 14.31C32.3534 16.3875 32.3544 18.3769 32.3555 20.3664Z" fill="#F9C6A0"/>
<path id="Vector_6" d="M19.3153 27.5116C20.2933 27.8744 21.2328 28.4175 22.2443 28.6576C24.5712 29.2098 26.7825 28.7964 28.8342 27.4728C28.8725 27.7838 28.8787 28.1 28.8846 28.4966C28.8866 28.6799 28.8889 28.7829 28.8913 28.8859C29.1278 31.6795 27.9792 34.1658 27.1426 36.7197C27.0903 36.8792 26.9396 37.0344 26.7944 37.131C25.1578 38.2205 22.8742 38.1929 21.2811 37.0699C21.1878 37.004 21.0997 36.8931 21.0663 36.7854C20.489 34.9253 19.8721 33.0753 19.376 31.1935C19.1941 30.5034 19.3028 29.7366 19.2709 28.9425C19.2717 28.7537 19.2806 28.6272 19.2894 28.5008C19.2961 28.1853 19.3028 27.8698 19.3153 27.5116Z" fill="#EFB886"/>
<path id="Vector_7" d="M19.2474 28.5006C19.2806 28.6272 19.2717 28.7537 19.2493 28.9077C18.9802 29.0713 18.7248 29.2074 18.3937 29.3467C16.9195 29.3542 15.5952 29.6821 14.4073 30.411C13.6789 30.858 13.0249 31.43 12.8463 32.3505C12.7454 32.6882 12.5783 33.0218 12.5572 33.3645C12.5123 34.0906 12.5435 34.8214 12.5435 35.5013C12.9931 35.6743 13.4717 35.7874 13.874 36.028C14.7095 36.5276 15.1332 37.3167 15.1619 38.2856C15.1901 39.2373 15.1658 40.1904 15.1719 41.1429C15.1741 41.4888 15.0277 41.6722 14.6716 41.6678C14.4686 41.6653 14.2476 41.7163 14.0679 41.6514C13.8974 41.5898 13.7702 41.4086 13.6239 41.28C13.7621 41.1588 13.8889 41.0192 14.0431 40.9239C14.1239 40.8739 14.2528 40.9017 14.3474 40.8953C14.3474 39.8672 14.4181 38.8543 14.3251 37.8567C14.2503 37.0537 13.4848 36.4373 12.6778 36.3693C12.2606 36.3341 11.8307 36.3283 11.4179 36.3879C10.5853 36.5081 9.88849 37.2866 9.85002 38.1356C9.81613 38.8836 9.83848 39.6342 9.83619 40.3837C9.83572 40.5387 9.83612 40.6937 9.83612 40.8777C10.0068 40.8959 10.1767 40.8727 10.2989 40.9383C10.4285 41.0079 10.6078 41.1748 10.594 41.2756C10.575 41.4141 10.4118 41.6114 10.2799 41.6394C10.0112 41.6964 9.71137 41.7023 9.44572 41.6392C9.30264 41.6052 9.10374 41.3874 9.10074 41.2488C9.07711 40.1565 9.0396 39.0596 9.11398 37.9714C9.20092 36.6996 10.2326 35.7868 11.6896 35.5826C11.7333 34.6907 11.7773 33.7929 11.815 32.8546C12.0885 31.8498 12.4889 30.9503 13.2727 30.2826C14.357 29.3589 15.6452 28.8905 17.0348 28.6949C17.7532 28.5937 18.4816 28.563 19.2474 28.5006Z" fill="#393A3A"/>
<path id="Vector_8" d="M28.9201 28.8963C28.8889 28.7829 28.8866 28.6799 28.8915 28.5391C30.6286 28.5099 32.3155 28.7391 33.873 29.5489C35.1618 30.2189 35.9805 31.2707 36.3304 32.7166C36.3802 33.9833 36.4157 35.2236 36.4129 36.4971C36.1645 36.5379 35.9542 36.5456 35.744 36.5532C35.7325 35.6722 35.7551 34.789 35.6964 33.9111C35.6623 33.4017 35.4974 32.901 35.3675 32.3349C35.1115 31.8617 34.9565 31.3719 34.6334 31.0519C33.2992 29.7299 31.5876 29.4004 29.7902 29.3535C29.5098 29.2046 29.2294 29.0556 28.9201 28.8963Z" fill="#373737"/>
<path id="Vector_9" d="M15.7907 14.3109C15.8275 16.2924 15.8323 18.2864 15.8332 20.326C14.4879 19.8396 13.8791 18.8465 13.9685 17.4142C13.9937 17.0118 13.9712 16.5992 14.0542 16.209C14.2551 15.2645 14.8676 14.6602 15.7907 14.3109Z" fill="#EDB786"/>
<path id="Vector_10" d="M32.3872 20.3556C32.3544 18.3769 32.3533 16.3875 32.3571 14.3514C33.6228 14.7814 34.2182 15.6308 34.221 16.9725C34.2219 17.4087 34.2549 17.8537 34.1829 18.2793C34.0094 19.3046 33.3752 19.9706 32.3872 20.3556Z" fill="#EEB786"/>
<path id="Vector_11" d="M29.8068 29.3809C31.5876 29.4004 33.2992 29.7299 34.6334 31.0518C34.9565 31.3719 35.1114 31.8616 35.3436 32.31C34.1548 32.1171 32.966 31.8876 31.7357 31.6582C31.1925 30.807 30.671 29.972 29.8068 29.3809Z" fill="#3D4446"/>
<path id="Vector_12" d="M12.8834 32.3504C13.025 31.43 13.6789 30.858 14.4073 30.411C15.5952 29.682 16.9195 29.3541 18.3626 29.3533C17.606 29.9626 17.0094 30.7377 16.5155 31.6378C15.3028 31.8901 14.1117 32.1201 12.8834 32.3504Z" fill="#3E4446"/>
<path id="Vector_13" d="M35.7053 36.5547C35.9542 36.5456 36.1645 36.5379 36.4049 36.5396C37.4672 36.6547 38.3206 37.5139 38.5169 38.6447C38.6783 39.5747 38.1198 40.6076 37.2919 41.0823C35.8388 41.9154 34.1648 41.0543 33.7367 39.6771C33.3043 38.2858 34.2188 36.7792 35.7053 36.5547Z" fill="#D8EAEF"/>
</g>
</svg>
