<svg width="48" height="48" viewBox="0 0 48 48" fill="none" xmlns="http://www.w3.org/2000/svg">
<g id="Heart care" clip-path="url(#clip0_77_39)">
<path id="Vector" d="M43.335 11.4375C43.77 11.565 44.1225 11.9175 44.2275 12.39L46.5 22.7625C46.77 24.0075 46.83 25.275 46.695 26.5275C46.6275 27.195 46.4925 27.87 46.305 28.5225C45.945 29.76 45.39 30.93 44.6475 31.98L39.3675 39.5325L31.3575 37.2075L31.4175 36.945C31.47 36.6825 31.575 36.2475 31.74 35.7C32.445 33.255 34.1625 28.9125 37.6575 27.2625C37.7325 27.225 37.785 27.1725 37.8075 27.0975L39.42 21.54C39.6375 20.79 40.425 20.355 41.175 20.5725C41.55 20.685 41.85 20.9325 42.0225 21.255C42.195 21.57 42.2475 21.9525 42.1425 22.3275L39.81 30.375C39.75 30.525 39.8325 30.675 39.975 30.72C40.1175 30.7575 40.2675 30.675 40.305 30.5325L42.6375 22.5C42.825 21.855 42.6675 21.1575 42.2175 20.64C42.1425 20.5425 42.09 20.4375 42.0825 20.3175L41.7 12.735C41.67 12.0825 42.1275 11.5125 42.7725 11.4075C42.96 11.37 43.155 11.385 43.335 11.4375Z" fill="#F9B986"/>
<path id="Vector_2" d="M30.465 36.57L28.14 44.58C28.065 44.835 28.215 45.0975 28.4625 45.165L38.19 47.985C38.445 48.06 38.7075 47.91 38.775 47.6625L41.1 39.6525C41.175 39.3975 41.025 39.135 40.7775 39.0675L31.05 36.24C30.8025 36.1725 30.54 36.315 30.465 36.57Z" fill="#8676B7"/>
<path id="Vector_3" d="M30.465 36.57L30.5925 36.12C30.72 35.6925 31.17 35.445 31.5975 35.565L40.68 38.1975C41.1075 38.325 41.355 38.775 41.235 39.2025L41.1075 39.6525L30.465 36.57Z" fill="#E4E4E6"/>
<g id="Group">
<path id="Vector_4" d="M4.66503 11.4375C4.23003 11.565 3.87753 11.9175 3.77253 12.39L1.50753 22.77C1.23753 24.015 1.17753 25.2825 1.31253 26.535C1.38003 27.2025 1.51503 27.8775 1.70253 28.53C2.06253 29.7675 2.61753 30.9375 3.36003 31.9875L8.64003 39.54L16.65 37.215L16.59 36.9525C16.5375 36.69 16.4325 36.255 16.2675 35.7075C15.5625 33.2625 13.845 28.92 10.35 27.27C10.275 27.2325 10.2225 27.18 10.2 27.105L8.58753 21.5475C8.37003 20.7975 7.58253 20.3625 6.83253 20.58C6.45753 20.6925 6.15753 20.94 5.98503 21.2625C5.81253 21.5775 5.76003 21.96 5.86503 22.335L8.19753 30.3825C8.24253 30.525 8.16003 30.675 8.01003 30.72C7.86753 30.7575 7.71753 30.675 7.68003 30.5325L5.36253 22.5C5.17503 21.855 5.33253 21.1575 5.78253 20.64C5.85753 20.5425 5.91003 20.4375 5.91753 20.3175L6.30003 12.735C6.33003 12.0825 5.87253 11.5125 5.22753 11.4075C5.04003 11.37 4.84503 11.385 4.66503 11.4375Z" fill="#F9B986"/>
<path id="Vector_5" d="M17.535 36.57L19.86 44.58C19.935 44.835 19.785 45.0975 19.5375 45.165L9.81 47.985C9.555 48.06 9.2925 47.91 9.225 47.6625L6.9 39.6525C6.825 39.3975 6.975 39.135 7.2225 39.0675L16.95 36.2475C17.1975 36.1725 17.46 36.315 17.535 36.57Z" fill="#8676B7"/>
<path id="Vector_6" d="M17.535 36.57L17.4075 36.12C17.28 35.6925 16.83 35.445 16.4025 35.565L7.32 38.1975C6.8925 38.325 6.645 38.775 6.765 39.2025L6.8925 39.6525L17.535 36.57Z" fill="#E4E4E6"/>
</g>
<g id="Group_2">
<path id="Vector_7" d="M33.45 1.9125C36 4.4625 36 8.6025 33.45 11.1525L24.2025 20.4L14.9625 11.1525C12.4125 8.6025 12.4125 4.4625 14.9625 1.9125C17.5125 -0.6375 21.6525 -0.6375 24.2025 1.9125C26.7525 -0.6375 30.8925 -0.6375 33.45 1.9125Z" fill="#F93251"/>
<path id="Vector_8" d="M42.525 9.2475L39.2475 9.26251L38.595 8.7375C38.565 8.715 38.5275 8.70001 38.4525 8.70001C38.445 8.70001 38.43 8.70001 38.4225 8.70001C38.3625 8.715 38.31 8.7525 38.2875 8.8125L38.0175 9.3675L37.6875 9.0675C37.65 9.03 37.5975 9.01501 37.5525 9.01501L37.4925 9.0225H37.485C37.41 9.045 37.365 9.1125 37.35 9.1875L37.0725 11.5275L36.6675 4.575C36.66 4.47 36.5775 4.3875 36.465 4.38C36.3675 4.38 36.2775 4.455 36.2625 4.5525L35.5875 8.73001L35.3775 8.13C35.355 8.0625 35.295 8.01 35.1825 7.995C35.1225 7.995 35.07 8.0175 35.025 8.0625L34.0575 9.2175L30.6375 9.2325L30.1275 8.6925C30.09 8.655 30.0375 8.6325 29.9625 8.6325H29.955C29.895 8.64001 29.835 8.67751 29.805 8.73001L29.445 9.34501L28.995 8.835C28.9575 8.79 28.8975 8.7675 28.845 8.7675L28.7775 8.775C28.7025 8.805 28.6425 8.8725 28.6425 8.955L28.4925 10.92L28.05 4.785C28.0425 4.68 27.96 4.5975 27.8475 4.5975C27.7425 4.5975 27.66 4.68 27.645 4.7775L27.1275 8.88L26.835 8.175C26.805 8.1075 26.7525 8.0625 26.6475 8.0475C26.5875 8.0475 26.535 8.07 26.4975 8.115L25.5 9.27L22.11 9.285L21.57 8.7225C21.5325 8.685 21.48 8.66251 21.405 8.66251H21.3975C21.33 8.67 21.2775 8.7075 21.2475 8.7675L20.9325 9.34501L20.6475 8.9475C20.61 8.89501 20.5575 8.865 20.46 8.865C20.4525 8.865 20.445 8.865 20.4375 8.865C20.355 8.8875 20.295 8.955 20.2875 9.03751L19.9425 11.505L19.5525 4.575C19.545 4.47 19.4625 4.3875 19.35 4.38C19.245 4.38 19.1625 4.455 19.1475 4.5525L18.555 8.79L18.33 8.25C18.3 8.19 18.2475 8.145 18.1425 8.1225C18.09 8.1225 18.0375 8.145 18 8.1825L16.9275 9.2775L13.6425 9.29251L13.1325 8.7525C13.095 8.715 13.0425 8.6925 12.975 8.6925C12.915 8.6925 12.8625 8.7225 12.825 8.775L12.39 9.34501L12.1275 8.925C12.09 8.865 12.03 8.835 11.9325 8.835C11.925 8.835 11.9175 8.835 11.91 8.835C11.8275 8.8575 11.76 8.925 11.7525 9.01501L11.505 11.4075L11.0775 4.7325C11.07 4.6275 10.9875 4.545 10.875 4.5375C10.7775 4.5375 10.6875 4.6125 10.6725 4.7175L10.08 8.985L9.67499 8.01C9.65249 7.95001 9.59249 7.89751 9.48749 7.8825C9.43499 7.8825 9.38249 7.905 9.34499 7.9425L8.28749 9.0225H5.87999C5.76749 9.0225 5.67749 9.1125 5.67749 9.22501C5.67749 9.3375 5.76749 9.4275 5.87999 9.4275H8.33249C8.38499 9.4275 8.43749 9.405 8.47499 9.3675L9.39749 8.445L9.97499 9.8325C10.005 9.9075 10.08 9.96 10.185 9.96C10.185 9.96 10.185 9.96 10.1925 9.96C10.2825 9.945 10.3575 9.8775 10.3725 9.78751L10.7925 6.78L11.25 13.8675C11.2575 13.9725 11.3475 14.055 11.4525 14.0625C11.5575 14.0625 11.6475 13.98 11.655 13.8825L12.0975 9.66L12.2025 9.82501C12.24 9.885 12.3 9.915 12.375 9.9225C12.435 9.9225 12.495 9.8925 12.54 9.84L13.005 9.22501L13.395 9.63751C13.4325 9.675 13.485 9.6975 13.545 9.6975H16.995C17.0475 9.6975 17.1 9.675 17.1375 9.63751L18.075 8.70001L18.4725 9.6525C18.5025 9.7275 18.5775 9.78 18.6825 9.78C18.6825 9.78 18.6825 9.78 18.69 9.78C18.78 9.765 18.855 9.6975 18.87 9.6075L19.2675 6.7425L19.6275 13.68C19.635 13.785 19.7175 13.8675 19.83 13.875C19.935 13.875 20.0175 13.8 20.0325 13.695L20.6025 9.615L20.775 9.8625C20.8125 9.915 20.8725 9.95251 20.955 9.95251C21.0225 9.95251 21.09 9.90751 21.12 9.8475L21.4575 9.2325L21.8475 9.645C21.885 9.6825 21.9375 9.705 21.9975 9.705H25.56C25.62 9.705 25.6725 9.68251 25.71 9.63751L26.58 8.655L27.0375 9.7725C27.0675 9.8475 27.1425 9.9 27.2475 9.9H27.255C27.345 9.885 27.42 9.8175 27.435 9.72001L27.7875 6.9075L28.2825 13.7175C28.29 13.8225 28.38 13.905 28.485 13.905C28.5975 13.905 28.68 13.8225 28.6875 13.7175L29.01 9.495L29.3325 9.85501C29.37 9.9 29.4225 9.9225 29.4975 9.9225C29.4975 9.9225 29.4975 9.9225 29.505 9.9225C29.5725 9.915 29.6325 9.8775 29.6625 9.82501L30.0225 9.195L30.39 9.585C30.4275 9.6225 30.48 9.6525 30.54 9.6525H34.1325C34.1925 9.6525 34.245 9.63 34.29 9.585L35.115 8.6325L35.475 9.66C35.505 9.74251 35.58 9.795 35.685 9.795C35.775 9.78751 35.8575 9.72 35.8725 9.6225L36.3825 6.4875L36.8025 13.8825C36.81 13.9875 36.8925 14.07 37.005 14.0775C37.11 14.0775 37.1925 14.0025 37.2075 13.8975L37.7175 9.66L37.95 9.8775C37.9875 9.90751 38.0325 9.93 38.1075 9.93C38.115 9.93 38.1225 9.93 38.13 9.93C38.19 9.915 38.25 9.8775 38.2725 9.8175L38.55 9.24L39.045 9.63751C39.0825 9.66751 39.1275 9.6825 39.1725 9.6825H42.54C42.6525 9.6825 42.7425 9.5925 42.7425 9.48001C42.7425 9.36751 42.6375 9.2475 42.525 9.2475Z" fill="#29354E"/>
</g>
</g>
<defs>
<clipPath id="clip0_77_39">
<rect width="48" height="48" fill="white"/>
</clipPath>
</defs>
</svg>
