<svg width="32" height="32" viewBox="0 0 32 32" fill="none" xmlns="http://www.w3.org/2000/svg">
<g id="heart-beat-alt 3">
<path id="Vector" d="M17.9296 26.6432L14.5184 16.4096H11.2064L9.0688 8.39999L7.1136 16.4096H4.8736C9.1168 22.7392 17.1648 29.6736 17.1648 29.6736C17.1648 29.6736 25.1488 22.7392 29.36 16.4096H20.8864L17.9296 26.6432ZM25.1712 2.35199C22.432 2.06079 17.8944 3.74399 17.1072 8.13759C16.32 3.74399 11.7856 2.06079 9.0496 2.35199C5.696 2.71039 1.2736 4.18879 2.3936 11.0528C2.6176 12.416 3.3376 13.9712 4.3392 15.5872H6.4672L9.0336 5.07519L11.8368 15.5872H15.1136L17.872 23.872L20.2656 15.5872H29.6288V15.9968C30.7616 14.2336 31.5808 12.5312 31.8208 11.0528C32.944 4.18879 28.5184 2.71039 25.1712 2.35199ZM29.6288 16.4096V15.9968C29.5424 16.1344 29.4496 16.272 29.36 16.4096H29.6288ZM0 15.5872V16.4096H4.8736C4.6912 16.1344 4.512 15.8592 4.3392 15.5872H0Z" fill="black"/>
</g>
</svg>
