<svg width="32" height="32" viewBox="0 0 32 32" fill="none" xmlns="http://www.w3.org/2000/svg">
<g id="house-rent-svgrepo-com 3">
<g id="Group">
<g id="Group_2">
<g id="Group_3">
<path id="Vector" d="M13.3354 17.0667C13.3354 18.2021 14.3636 18.9637 15.4687 19.1525V14.9824C14.3609 15.1792 13.3354 15.9664 13.3354 17.0667Z" fill="black"/>
<path id="Vector_2" d="M16.5354 20.3158V24.486C17.6404 24.2966 18.6687 23.5356 18.6687 22.4001C18.6687 21.2998 17.6431 20.5121 16.5354 20.3158Z" fill="black"/>
<path id="Vector_3" d="M30.5364 11.8011L18.2836 0.93225C16.9988 -0.305063 14.9871 -0.305062 13.714 0.921562L9.602 4.66075V3.2H10.1353C10.4297 3.2 10.6686 2.96106 10.6686 2.66669V0.533312C10.6686 0.238937 10.4297 0 10.1353 0H3.73531C3.44094 0 3.202 0.238937 3.202 0.533312V2.66662C3.202 2.961 3.44094 3.19994 3.73531 3.19994H4.26862V9.35619L1.46594 11.7871C1.09262 12.1178 0.966186 12.633 1.14325 13.0991C1.31981 13.5652 1.75656 13.8666 2.25525 13.8666H4.26856V28.8H3.73525C3.44087 28.8 3.20194 29.0389 3.20194 29.3333V31.4666C3.20194 31.761 3.44087 31.9999 3.73525 31.9999H28.2643C28.5582 31.9999 28.7971 31.7621 28.7976 31.4677L28.8019 29.3344C28.8019 29.1925 28.7464 29.0565 28.6461 28.9562C28.5459 28.856 28.4104 28.8 28.2685 28.8H27.7352V13.8667H29.7522C30.2477 13.8667 30.6813 13.5675 30.8573 13.1046C31.0329 12.6416 30.9071 12.1301 30.5364 11.8011ZM16.0021 28.8C11.0026 28.8 6.93537 24.7328 6.93537 19.7333C6.93537 14.7338 11.0026 10.6666 16.0021 10.6666C21.0016 10.6666 25.0687 14.7338 25.0687 19.7333C25.0687 24.7328 21.0015 28.8 16.0021 28.8Z" fill="black"/>
<path id="Vector_4" d="M16.0021 11.7331C11.5909 11.7331 8.00206 15.3219 8.00206 19.7331C8.00206 24.1443 11.5909 27.7331 16.0021 27.7331C20.4132 27.7331 24.0021 24.1443 24.0021 19.7331C24.0021 15.3219 20.4132 11.7331 16.0021 11.7331ZM16.5354 25.5613V26.1331C16.5354 26.428 16.2964 26.6664 16.0021 26.6664C15.7077 26.6664 15.4687 26.428 15.4687 26.1331V25.572C14.8725 25.5123 14.3296 25.3533 13.8687 25.1064V25.5997C13.8687 25.8946 13.6298 26.133 13.3354 26.133C13.0411 26.133 12.8021 25.8946 12.8021 25.5997V22.3997C12.8021 22.1053 13.0411 21.8664 13.3354 21.8664C13.6298 21.8664 13.8687 22.1053 13.8687 22.3997V23.7917C14.2314 24.1618 14.7994 24.4098 15.4687 24.4963V20.228C13.8431 20.0147 12.2687 18.8483 12.2687 17.0664C12.2687 15.2851 13.8431 14.1186 15.4687 13.9053V13.3331C15.4687 13.0387 15.7077 12.7998 16.0021 12.7998C16.2964 12.7998 16.5354 13.0387 16.5354 13.3331V13.8936C17.137 13.9513 17.6767 14.108 18.1354 14.3544V13.8664C18.1354 13.5721 18.3743 13.3331 18.6687 13.3331C18.9631 13.3331 19.202 13.5721 19.202 13.8664V17.0664C19.202 17.3614 18.9631 17.5998 18.6687 17.5998C18.3743 17.5998 18.1354 17.3614 18.1354 17.0664V15.6734C17.7674 15.2926 17.2148 15.0504 16.5354 14.9683V19.2387C18.161 19.452 19.7354 20.6184 19.7354 22.3997C19.7354 24.1816 18.1609 25.348 16.5354 25.5613Z" fill="black"/>
</g>
</g>
</g>
</g>
</svg>
