<svg width="32" height="32" viewBox="0 0 32 32" fill="none" xmlns="http://www.w3.org/2000/svg">
<g id="journalist-host-profession-interview-svgrepo-com 3">
<path id="Vector" d="M19.3067 19.9467H22.2933V21.8667H19.3067V19.9467ZM22.9227 10.6667H18.688L20.8 18.7307L22.9227 10.6667ZM26.4 10.6667H23.584L21.312 19.3067H22.9333V24.32H18.6667V19.3067H20.2987L18.0267 10.6667H16.224C14.8693 10.6667 13.5893 11.296 12.768 12.3733L9.57867 16.5227L5.22667 13.696V12.16C5.792 11.8507 6.18667 11.2533 6.18667 10.56C6.18667 9.55732 5.376 8.74666 4.37333 8.74666C3.37067 8.74666 2.56 9.55732 2.56 10.56C2.56 11.2533 2.95467 11.8507 3.52 12.16V18.9867H5.22667V18.1547L8.87467 20.5227C9.74934 21.088 10.9227 20.896 11.552 20.064L14.1013 16.7467H15.04V29.44H26.336V16.7467H27.6267V27.52C27.6267 28.5653 28.4693 29.4507 29.5147 29.44C30.5067 29.44 31.36 28.544 31.36 27.52V15.5733C31.3707 12.832 29.1413 10.6667 26.4 10.6667ZM1.33333 13.408C1.13067 13.7173 1.03467 14.0693 1.03467 14.4107C1.03467 15.0293 1.33333 15.6373 1.888 15.9893L2.656 16.4907V12.5653C2.13333 12.64 1.64267 12.928 1.33333 13.408ZM16.768 5.72799C16.768 7.88266 18.5067 9.62132 20.6613 9.62132C22.816 9.62132 24.5547 7.88266 24.5547 5.72799C24.5547 3.57332 22.816 1.83466 20.6613 1.83466C18.5067 1.83466 16.768 3.57332 16.768 5.72799Z" fill="#010101"/>
</g>
</svg>
