<svg width="48" height="48" viewBox="0 0 48 48" fill="none" xmlns="http://www.w3.org/2000/svg">
<g id="Medicine">
<path id="Vector" d="M9.61694 5.302H21.3159V9.71H9.61694V5.302Z" fill="#85C5DD"/>
<path id="Vector_2" d="M21.317 9.71101V6.311H12.893C12.2986 6.311 11.7286 6.54711 11.3084 6.96738C10.8881 7.38765 10.652 7.95765 10.652 8.552V9.71101H21.317Z" fill="#95CFE1"/>
<path id="Vector_3" d="M24.768 9.457H6.16597C3.91485 9.457 2.08997 11.2819 2.08997 13.533V36.94C2.08997 39.1911 3.91485 41.016 6.16597 41.016H24.768C27.0191 41.016 28.844 39.1911 28.844 36.94V13.533C28.844 11.2819 27.0191 9.457 24.768 9.457Z" fill="#C1EAFE"/>
<path id="Vector_4" d="M24.768 9.45599H6.16598C6.01859 9.46281 5.87169 9.47784 5.72598 9.50099C5.31786 10.1461 5.10081 10.8936 5.09998 11.657V35.063C5.09998 36.144 5.52941 37.1808 6.29381 37.9452C7.05821 38.7096 8.09495 39.139 9.17598 39.139H27.776C27.9233 39.1325 28.0702 39.1178 28.216 39.095C28.625 38.4502 28.8431 37.7026 28.845 36.939V13.533C28.8451 12.9976 28.7397 12.4673 28.5349 11.9726C28.3301 11.4779 28.0298 11.0284 27.6511 10.6498C27.2725 10.2712 26.823 9.97091 26.3283 9.76607C25.8336 9.56123 25.3034 9.45586 24.768 9.45599Z" fill="#D2F0FB"/>
<path id="Vector_5" d="M2.08997 17.637H28.844V34.345H2.08997V17.637Z" fill="#85C5DD"/>
<path id="Vector_6" d="M5.09705 17.637H28.844V34.345H5.09705V17.637Z" fill="#95CFE1"/>
<path id="Vector_7" d="M6.93396 0.75H24V5.557H6.93396V0.75Z" fill="#C1EAFE"/>
<path id="Vector_8" d="M10.9249 4.421H23.9999V0.75H8.41895V1.915C8.41895 2.57963 8.68297 3.21704 9.15294 3.68701C9.6229 4.15698 10.2603 4.421 10.9249 4.421Z" fill="#D2F0FB"/>
<path id="Vector_9" d="M20.6974 37.044L12.7721 40.1984C11.731 40.6128 11.2229 41.7928 11.6373 42.8339L11.6377 42.8349C12.0521 43.876 13.232 44.3841 14.2732 43.9697L22.1985 40.8152C23.2396 40.4008 23.7477 39.2208 23.3333 38.1797L23.3329 38.1788C22.9185 37.1376 21.7385 36.6295 20.6974 37.044Z" fill="#F5E17B"/>
<path id="Vector_10" d="M20.7 37.044L12.772 40.2C12.5954 40.2711 12.4295 40.3664 12.279 40.483C12.0728 40.9726 12.0677 41.5237 12.265 42.017C12.3636 42.2644 12.51 42.49 12.6958 42.6809C12.8815 42.8717 13.1031 43.0241 13.3478 43.1293C13.5925 43.2345 13.8555 43.2905 14.1218 43.294C14.3882 43.2976 14.6526 43.2486 14.9 43.15L22.826 40C23.0027 39.9296 23.1687 39.8347 23.319 39.718C23.5252 39.2281 23.5303 38.6766 23.333 38.183C23.1345 37.6831 22.7458 37.2823 22.2521 37.0687C21.7585 36.8552 21.2002 36.8463 20.7 37.044Z" fill="#F5E79A"/>
<path id="Vector_11" d="M20.7 37.044L16.738 38.621L18.238 42.392L22.2 40.815C22.7001 40.6161 23.1007 40.2267 23.3136 39.7324C23.5266 39.2382 23.5344 38.6796 23.3355 38.1795C23.1366 37.6794 22.7472 37.2789 22.253 37.0659C21.7587 36.853 21.2001 36.8451 20.7 37.044Z" fill="#E75457"/>
<path id="Vector_12" d="M20.7 37.044L16.738 38.621L18.038 41.901L22.826 40C23.0028 39.9296 23.1688 39.8347 23.319 39.718C23.4737 39.3494 23.5161 38.9433 23.4408 38.5507C23.3655 38.1581 23.1759 37.7965 22.8958 37.5112C22.6157 37.226 22.2576 37.0299 21.8664 36.9475C21.4752 36.865 21.0684 36.9 20.697 37.048L20.7 37.044Z" fill="#F06963"/>
<path id="Vector_13" d="M32.355 43.191H23.825C22.7044 43.191 21.796 44.0994 21.796 45.22V45.221C21.796 46.3416 22.7044 47.25 23.825 47.25H32.355C33.4756 47.25 34.384 46.3416 34.384 45.221V45.22C34.384 44.0994 33.4756 43.191 32.355 43.191Z" fill="#F5E17B"/>
<path id="Vector_14" d="M32.355 43.191H23.825C23.6345 43.1909 23.445 43.2179 23.262 43.271C22.8896 43.6497 22.6812 44.1598 22.682 44.691C22.6819 44.9575 22.7343 45.2215 22.8362 45.4678C22.9381 45.7141 23.0875 45.9379 23.2759 46.1264C23.4644 46.3149 23.6881 46.4644 23.9343 46.5665C24.1805 46.6685 24.4445 46.721 24.711 46.721H33.24C33.4305 46.7212 33.6201 46.6943 33.803 46.641C34.176 46.2621 34.3847 45.7516 34.384 45.22C34.3837 44.682 34.1699 44.166 33.7894 43.7856C33.409 43.4051 32.8931 43.1913 32.355 43.191Z" fill="#F5E79A"/>
<path id="Vector_15" d="M32.355 43.191H28.09V47.25H32.355C32.8854 47.2382 33.3902 47.0192 33.7612 46.6399C34.1322 46.2606 34.3399 45.7511 34.3399 45.2205C34.3399 44.6899 34.1322 44.1804 33.7612 43.8011C33.3902 43.4218 32.8854 43.2028 32.355 43.191Z" fill="#E75457"/>
<path id="Vector_16" d="M32.355 43.191H28.09V46.721H33.24C33.4305 46.7211 33.62 46.6942 33.803 46.641C34.0828 46.3558 34.2723 45.9942 34.3474 45.6017C34.4226 45.2092 34.3802 44.8033 34.2256 44.4348C34.0709 44.0663 33.8109 43.7517 33.4781 43.5304C33.1453 43.3091 32.7546 43.1911 32.355 43.191Z" fill="#F06963"/>
<path id="Vector_17" d="M42.202 47.25C44.2499 47.25 45.91 45.5899 45.91 43.542C45.91 41.4941 44.2499 39.834 42.202 39.834C40.1541 39.834 38.494 41.4941 38.494 43.542C38.494 45.5899 40.1541 47.25 42.202 47.25Z" fill="#E5AE4C"/>
<path id="Vector_18" d="M39.418 37.262C41.4658 37.262 43.126 35.6019 43.126 33.554C43.126 31.5061 41.4658 29.846 39.418 29.846C37.3701 29.846 35.71 31.5061 35.71 33.554C35.71 35.6019 37.3701 37.262 39.418 37.262Z" fill="#E5AE4C"/>
<path id="Vector_19" d="M44.987 41.094C44.5092 40.5507 43.883 40.159 43.1854 39.9671C42.4878 39.7752 41.7494 39.7915 41.061 40.014C40.9318 40.1008 40.8086 40.196 40.692 40.299C40.0514 40.8621 39.6246 41.6288 39.4834 42.4699C39.3422 43.311 39.4952 44.175 39.9167 44.9164C40.3382 45.6578 41.0024 46.2313 41.7974 46.5401C42.5923 46.849 43.4695 46.8744 44.281 46.612C44.4096 46.5246 44.5329 46.4294 44.65 46.327C45.3886 45.6777 45.839 44.7617 45.9022 43.7803C45.9654 42.7989 45.6362 41.8326 44.987 41.094ZM43.1 33.159C43.0481 32.6748 42.9014 32.2056 42.6682 31.7782C42.4349 31.3508 42.1198 30.9735 41.7407 30.6679C41.3617 30.3623 40.9261 30.1343 40.4589 29.9971C39.9917 29.8598 39.5021 29.816 39.018 29.868C38.7635 29.8954 38.5126 29.9487 38.269 30.027C37.5276 30.5275 36.9921 31.2791 36.7611 32.1433C36.5302 33.0075 36.6193 33.9261 37.0121 34.7297C37.405 35.5334 38.075 36.168 38.8988 36.5167C39.7225 36.8653 40.6446 36.9045 41.495 36.627C42.0524 36.2493 42.4963 35.7269 42.7791 35.1159C43.0619 34.5049 43.1728 33.8283 43.1 33.159Z" fill="#E5B859"/>
<path id="Vector_20" d="M43.1231 33.656C43.1283 33.4891 43.1219 33.322 43.1041 33.156C43.0863 32.9875 43.0569 32.8204 43.016 32.656L35.716 33.45C35.7114 33.6149 35.7178 33.7799 35.7351 33.944C35.753 34.1108 35.7824 34.2762 35.8231 34.439L43.1231 33.656Z" fill="#E58332"/>
<path id="Vector_21" d="M43.1 33.159C43.0823 32.9905 43.0529 32.8234 43.012 32.659L36.652 33.35C36.652 33.396 36.656 33.442 36.664 33.488C36.6953 33.7748 36.7597 34.057 36.856 34.329L43.12 33.653C43.1241 33.4881 43.1174 33.323 43.1 33.159Z" fill="#E59B43"/>
<path id="Vector_22" d="M10.912 24.129H13.625V21.416H17.309V24.129H20.022V27.813H17.309V30.526H13.625V27.813H10.912V24.129Z" fill="#C1EAFE"/>
<path id="Vector_23" d="M44.6261 40.737L39.1121 45.59C39.2049 45.7301 39.3071 45.8637 39.4181 45.99C39.5279 46.1152 39.6462 46.2328 39.7721 46.342L45.2881 41.487C45.1969 41.3495 45.0967 41.2182 44.9881 41.094C44.876 40.9666 44.755 40.8473 44.6261 40.737Z" fill="#E58332"/>
<path id="Vector_24" d="M44.987 41.094C44.8753 40.9666 44.7547 40.8473 44.626 40.737L39.9 44.894C40.0278 45.1218 40.1789 45.3356 40.351 45.532C40.4 45.588 40.451 45.642 40.504 45.694L45.283 41.487C45.1935 41.3494 45.0946 41.2181 44.987 41.094Z" fill="#E59B43"/>
<path id="Vector_25" d="M34.7171 37.9148L27.9755 32.6887C27.0899 32.0022 25.8154 32.1636 25.1288 33.0492L25.1282 33.05C24.4417 33.9356 24.6031 35.2102 25.4887 35.8967L32.2303 41.1228C33.1159 41.8094 34.3904 41.648 35.077 40.7623L35.0776 40.7615C35.7641 39.8759 35.6028 38.6014 34.7171 37.9148Z" fill="#F5E17B"/>
<path id="Vector_26" d="M34.7169 37.915L27.9759 32.689C27.8256 32.5724 27.6597 32.4775 27.4829 32.407C26.9562 32.4785 26.4786 32.7539 26.1529 33.174C25.8234 33.5997 25.6763 34.1387 25.744 34.6727C25.8117 35.2067 26.0886 35.692 26.5139 36.022L33.2549 41.247C33.4053 41.3636 33.5712 41.4586 33.7479 41.529C34.2749 41.4584 34.7528 41.1828 35.0779 40.762C35.2412 40.5514 35.3614 40.3107 35.4316 40.0536C35.5018 39.7965 35.5207 39.5281 35.4872 39.2637C35.4537 38.9994 35.3684 38.7442 35.2362 38.5128C35.1041 38.2813 34.9276 38.0782 34.7169 37.915Z" fill="#F5E79A"/>
<path id="Vector_27" d="M34.717 37.915L31.347 35.3L28.86 38.51L32.23 41.123C32.44 41.2929 32.6818 41.4192 32.9412 41.4945C33.2007 41.5698 33.4725 41.5925 33.7409 41.5614C34.0092 41.5303 34.2687 41.4459 34.504 41.3132C34.7393 41.1805 34.9458 41.0022 35.1113 40.7887C35.2768 40.5752 35.398 40.3308 35.4679 40.0698C35.5378 39.8089 35.5548 39.5366 35.5181 39.269C35.4814 39.0013 35.3916 38.7437 35.254 38.5112C35.1165 38.2787 34.9339 38.076 34.717 37.915Z" fill="#E75457"/>
<path id="Vector_28" d="M34.717 37.915L31.347 35.3L29.184 38.09L33.255 41.245C33.4053 41.3616 33.5712 41.4565 33.748 41.527C34.1439 41.473 34.5152 41.3033 34.8151 41.0391C35.1149 40.7749 35.3301 40.4281 35.4336 40.0421C35.5371 39.656 35.5243 39.2481 35.3968 38.8693C35.2693 38.4905 35.0328 38.1578 34.717 37.913V37.915Z" fill="#F06963"/>
</g>
</svg>
