<svg width="48" height="48" viewBox="0 0 48 48" fill="none" xmlns="http://www.w3.org/2000/svg">
<g id="Maternal and Child Pathologist" clip-path="url(#clip0_80_94)">
<path id="Vector" d="M22.5498 0.09375C22.6571 0.156001 22.7154 0.266427 22.7844 0.273578C25.8835 0.594686 28.4099 2.02915 30.426 4.34045C31.8313 5.95158 32.7647 7.83608 33.0888 9.9772C33.1899 10.6447 33.2666 11.3227 33.2726 11.9966C33.2943 14.4324 33.2811 16.8686 33.2811 19.3047C33.2811 19.4746 33.2811 19.6445 33.2811 19.8242C33.8856 19.8734 34.4756 19.8672 35.0427 19.9778C36.8547 20.331 38.2459 21.3188 39.183 22.9105C39.3436 23.1834 39.5072 23.2595 39.8021 23.2559C42.3427 23.2245 44.1442 24.4369 45.2408 26.6645C45.988 28.1822 45.9308 29.794 45.339 31.3568C45.0883 32.0188 44.6798 32.6223 44.3299 33.245C44.1108 33.6349 43.8405 33.9622 43.7328 34.4467C43.4468 35.7329 42.1561 36.3663 40.9132 35.7263C40.7697 35.6524 40.5384 35.6867 40.3683 35.7384C39.8354 35.9004 39.3123 36.0947 38.8365 36.2589C39.0446 36.7558 39.3707 37.2916 39.4902 37.8701C39.7403 39.0805 39.5446 40.2293 38.6531 41.1699C38.3752 41.4631 38.2288 41.7729 38.2409 42.195C38.2691 43.178 38.2274 44.163 38.2555 45.146C38.2921 46.4242 37.4977 47.7108 36.2172 47.9387C36.1812 47.9451 36.1547 48.0052 36.1556 48.067C26.2481 48.0938 16.3086 48.0938 6.3572 48.0681C6.2553 47.9943 6.17039 47.9294 6.07463 47.9007C4.99992 47.5785 4.28423 46.3852 4.29779 45.3856C4.33891 42.3551 4.31853 39.3237 4.31038 36.2927C4.30582 34.5961 4.79092 33.0501 5.6923 31.6098C3.00079 29.8571 1.7661 27.4088 2.71707 24.2784C3.67867 21.1129 6.07765 19.7521 9.37518 19.8563C9.37518 19.662 9.37518 19.4941 9.37518 19.3263C9.37518 17.0921 9.38336 14.8578 9.372 12.6237C9.36555 11.3556 9.48256 10.1148 9.82989 8.88372C10.5055 6.48935 11.7875 4.51698 13.701 2.93156C15.5048 1.43705 17.5534 0.542213 19.8796 0.273494C19.9466 0.265756 20.0018 0.15596 20.0625 0.0937503C20.877 0.09375 21.6915 0.09375 22.5498 0.09375ZM11.9848 13.071C12.4299 12.4588 13.0584 12.1974 13.8488 12.1508C13.8488 11.789 13.8286 11.4469 13.853 11.108C13.9051 10.3855 14.487 9.91723 15.2053 10.0142C15.4037 10.0409 15.5986 10.1101 15.7893 10.1766C19.5781 11.4976 23.359 11.647 27.1421 10.1406C28.0207 9.79074 28.7932 10.3218 28.847 11.2667C28.8636 11.5578 28.8496 11.8505 28.8496 12.1295C30.2761 12.3661 31.06 13.1048 31.1239 14.2211C31.1938 15.4432 30.5445 16.1454 28.8512 16.645C28.8512 17.3948 28.8601 18.1581 28.8496 18.9212C28.8155 21.4175 27.844 23.4574 25.8699 25.0058C25.5499 25.2569 25.0518 25.4704 24.9707 25.7869C24.8765 26.1543 25.1509 26.6164 25.2672 27.0369C25.2879 27.112 25.3224 27.1834 25.3418 27.2587C25.4306 27.6026 25.61 27.7505 26.0039 27.738C27.0809 27.7036 28.1621 27.6821 29.2371 27.7396C30.1514 27.7886 31.0657 27.9196 31.9675 28.0833C32.4419 28.1694 32.8894 28.4034 33.4408 28.604C33.3629 28.4144 33.3257 28.3051 33.2747 28.2028C32.6223 26.8959 33.2469 25.6433 34.6736 25.3711C34.8578 25.336 35.0503 25.2304 35.1916 25.1045C35.936 24.4412 36.7654 23.9291 37.7115 23.6091C37.8516 23.5617 37.9896 23.5078 38.1579 23.4462C37.5316 22.4458 36.7103 21.7845 35.6797 21.3673C34.8176 21.0183 33.9162 20.9994 33.0067 21.01C32.2584 21.0186 32.1366 20.89 32.1362 20.1402C32.1351 17.5621 32.142 14.984 32.1309 12.4059C32.1284 11.8292 32.1097 11.2461 32.0233 10.6773C31.0885 4.52261 25.6378 0.533411 19.5046 1.5009C14.7129 2.25678 10.8132 6.53307 10.5998 11.3652C10.5041 13.5331 10.5629 15.7078 10.5536 17.8794C10.5502 18.6607 10.5576 19.442 10.5511 20.2231C10.5459 20.8492 10.3879 21.0052 9.77639 21.0115C9.43267 21.015 9.08887 21.0096 8.74516 21.0132C5.5715 21.046 3.24427 23.6706 3.66659 26.8158C3.90277 28.5748 4.89856 29.8376 6.46502 30.6472C9.01115 28.2836 10.4411 27.7261 13.9138 27.7261C14.8201 27.7261 15.7264 27.7174 16.6325 27.7314C16.8912 27.7354 17.0397 27.6576 17.1148 27.4057C17.2663 26.8978 17.4561 26.3998 17.5782 25.8855C17.6116 25.7448 17.5091 25.4879 17.3874 25.4067C15.0004 23.8162 13.8153 21.5972 13.8388 18.7295C13.8446 18.029 13.8397 17.3284 13.8397 16.6417C11.7111 16.0309 11.0128 14.7097 11.9848 13.071ZM24.5606 46.6161C20.874 43.9151 20.246 38.8678 23.2438 35.5351C24.7367 33.8755 26.34 32.3145 27.9084 30.7237C28.6138 30.0083 29.5017 29.7056 30.5003 29.7193C31.34 29.7309 32.0798 30.0392 32.7555 30.5231C33.0735 29.837 33.0314 29.6599 32.4051 29.4349C31.8644 29.2406 31.3056 29.0123 30.7438 28.9777C29.2808 28.8877 27.8108 28.9161 26.3454 28.8542C25.7975 28.8311 25.5174 28.9457 25.3234 29.5337C24.7581 31.2468 23.0924 32.2371 21.0645 32.1815C19.1545 32.1292 17.6147 31.0136 17.0769 29.3179C17.0227 29.1472 16.8428 28.8881 16.7193 28.8871C15.158 28.8736 13.5765 28.7469 12.0386 28.946C8.09995 29.4561 5.49022 32.5368 5.46623 36.5296C5.44914 39.3731 5.46115 42.2169 5.46331 45.0605C5.46427 46.3267 5.99315 46.8532 7.26233 46.8535C12.934 46.8547 18.6056 46.8542 24.2773 46.8531C24.4248 46.853 24.5722 46.8385 24.7347 46.8299C24.7063 46.763 24.6999 46.7323 24.6823 46.7106C24.6632 46.6871 24.6337 46.6721 24.5606 46.6161ZM24.963 24.2648C26.6341 23.0588 27.5757 21.4357 27.689 19.3726C27.7438 18.3757 27.7147 17.3742 27.7201 16.3747C27.7246 15.5421 27.8109 15.454 28.6239 15.4428C28.8099 15.4403 29.0005 15.4313 29.1806 15.3895C29.7007 15.2689 30.0374 14.8007 29.9944 14.2857C29.951 13.7667 29.5493 13.3611 29.0195 13.3147C28.8334 13.2984 28.6449 13.3089 28.4576 13.3051C27.9124 13.2943 27.7317 13.1202 27.7214 12.5736C27.713 12.1278 27.7197 11.6817 27.7197 11.1475C23.437 12.8488 19.2307 12.6314 14.9871 11.0635C14.9871 11.4275 14.9903 11.6756 14.9865 11.9236C14.967 13.2156 14.9664 13.2155 13.6998 13.3098C13.1427 13.3513 12.731 13.7515 12.6865 14.2947C12.6433 14.8225 13.0073 15.2985 13.5553 15.4032C13.7526 15.4409 13.9586 15.4405 14.1609 15.4436C14.8056 15.4535 14.9657 15.6045 14.9692 16.2443C14.9743 17.1971 14.9496 18.1506 14.9776 19.1027C15.0512 21.6141 16.2046 23.502 18.4193 24.6598C20.6231 25.8119 22.8102 25.6317 24.963 24.2648ZM30.6415 37.0288C30.3668 35.0981 29.5023 33.4987 27.9806 32.2238C26.643 33.6182 25.3154 34.9636 24.0338 36.3515C23.1511 37.3075 22.6722 38.479 22.5361 39.7688C22.3493 41.5383 22.8296 43.1195 23.9571 44.522C24.0229 44.4636 24.0657 44.4396 24.0889 44.4031C25.4885 42.1998 27.4681 40.8643 30.0388 40.3926C30.1702 40.3685 30.3226 40.1762 30.3715 40.0307C30.6906 39.0831 30.7266 38.1031 30.6415 37.0288ZM28.8704 31.445C28.9765 31.5574 29.0792 31.6732 29.1891 31.7817C30.8394 33.4108 31.762 35.3714 31.7904 37.7007C31.8007 38.5498 31.6647 39.4006 31.5923 40.2902C33.2852 40.3276 34.8836 40.8684 36.3553 41.8987C36.9046 41.3089 37.4919 40.7822 37.9534 40.162C39.0122 38.7386 38.3219 36.7142 36.4893 36.0384C34.9263 35.4621 33.7451 34.5453 33.1886 32.9727C32.9602 32.3273 32.568 31.8764 32.083 31.4615C31.1573 30.6695 29.883 30.6417 28.8704 31.445ZM34.2396 29.4274C33.8871 30.429 33.8284 31.4387 34.1757 32.4533C34.9868 34.8227 37.7796 35.8117 40.1354 34.5325C40.6398 34.2587 41.0083 34.1798 41.4658 34.6118C41.619 34.7565 42.0308 34.7495 42.2634 34.6576C42.5758 34.5343 42.6837 34.188 42.5591 33.8614C42.4737 33.6375 42.3224 33.4247 42.1569 33.2477C41.4971 32.5423 40.9691 31.7519 40.6973 30.8264C40.4926 30.1297 40.3829 29.4051 40.2238 28.6601C40.2359 28.6638 40.1919 28.6386 40.1477 28.6381C38.3006 28.6186 36.7195 27.9532 35.3676 26.7027C35.0612 26.4192 34.6153 26.4522 34.3507 26.7185C34.0784 26.9925 34.032 27.4215 34.3361 27.7324C34.7389 28.1442 34.7578 28.5276 34.4394 28.9767C34.3601 29.0886 34.325 29.2318 34.2396 29.4274ZM28.0471 46.7456C29.8601 47.0021 31.5033 46.5918 32.8867 45.3852C33.8248 44.567 34.6845 43.659 35.591 42.7797C32.1245 40.2371 26.8014 41.4234 24.8593 45.4172C25.8053 46.0632 26.825 46.5355 28.0471 46.7456ZM40.6316 24.4628C38.9199 24.1997 37.4467 24.7119 36.1284 25.8028C37.2304 26.9366 38.5947 27.4986 40.1969 27.4996C41.4153 27.5004 41.411 27.5006 41.448 28.706C41.4966 30.2927 42.0741 31.6425 43.2489 32.7289C44.5322 31.4437 44.9878 28.7234 44.212 27.4107C43.7908 27.6106 43.3958 27.8713 42.9621 27.9862C42.361 28.1455 41.696 27.7558 41.4577 27.2096C41.2351 26.6995 41.378 26.1105 41.8061 25.773C42.1731 25.4837 42.5869 25.4801 42.8102 25.7641C43.0377 26.0535 42.958 26.3266 42.5519 26.6618C42.5334 26.6771 42.5349 26.7167 42.5186 26.7757C42.8113 26.9901 43.0439 26.8496 43.2288 26.623C43.4543 26.3466 43.4586 26.0477 43.1969 25.7806C42.5093 25.0785 41.6719 24.6568 40.6316 24.4628ZM24.3195 29.0356C24.3681 28.7451 24.5132 28.4301 24.4465 28.169C24.2711 27.4817 24.0037 26.818 23.7652 26.1224C22.0778 26.6765 20.4084 26.6472 18.7489 26.0743C18.5578 26.6479 18.4102 27.1892 18.1962 27.7028C18.0218 28.1213 18.0365 28.5156 18.1581 28.93C18.5192 30.1601 19.608 30.9733 20.9985 31.0474C22.5862 31.132 23.7476 30.4474 24.3195 29.0356ZM34.1741 45.7524C33.7822 46.094 33.3902 46.4356 32.9602 46.8103C33.976 46.8103 34.9382 46.8633 35.891 46.7923C36.562 46.7423 37.0186 46.1371 37.0337 45.456C37.0506 44.6925 37.0406 43.9284 37.0368 43.1645C37.0364 43.0868 36.9986 43.0092 36.9752 42.9202C36.9128 42.9568 36.8811 42.9673 36.8605 42.9886C35.9801 43.8937 35.1006 44.7997 34.1741 45.7524Z" fill="#1471FF"/>
<path id="Vector_2" d="M11.9639 13.0981C11.0128 14.7097 11.7111 16.0309 13.8397 16.6417C13.8397 17.3284 13.8446 18.029 13.8388 18.7295C13.8153 21.5972 15.0005 23.8162 17.3874 25.4068C17.5091 25.4879 17.6116 25.7448 17.5782 25.8855C17.4561 26.3998 17.2663 26.8978 17.1148 27.4057C17.0397 27.6576 16.8912 27.7355 16.6325 27.7314C15.7265 27.7174 14.8201 27.7261 13.9138 27.7261C10.4411 27.7262 9.01118 28.2836 6.46504 30.6472C4.89858 29.8377 3.9028 28.5748 3.66661 26.8158C3.2443 23.6706 5.57153 21.046 8.74518 21.0132C9.08889 21.0096 9.4327 21.015 9.77641 21.0115C10.3879 21.0052 10.5459 20.8492 10.5511 20.2232C10.5576 19.442 10.5503 18.6607 10.5536 17.8794C10.5629 15.7078 10.5041 13.5331 10.5999 11.3652C10.8132 6.53308 14.713 2.25679 19.5047 1.50091C25.6378 0.533419 31.0885 4.52262 32.0233 10.6773C32.1097 11.2461 32.1284 11.8292 32.1309 12.4059C32.142 14.984 32.1351 17.5621 32.1362 20.1403C32.1366 20.89 32.2584 21.0186 33.0068 21.01C33.9162 20.9995 34.8176 21.0183 35.6797 21.3673C36.7103 21.7845 37.5316 22.4458 38.1579 23.4462C37.9896 23.5078 37.8517 23.5617 37.7115 23.6091C36.7654 23.9291 35.936 24.4412 35.1917 25.1045C35.0503 25.2304 34.8578 25.336 34.6737 25.3711C33.247 25.6433 32.6224 26.8959 33.2747 28.2028C33.3258 28.3051 33.3629 28.4144 33.4408 28.604C32.8894 28.4034 32.4419 28.1694 31.9675 28.0833C31.0657 27.9196 30.1514 27.7886 29.2371 27.7396C28.1621 27.6821 27.0809 27.7036 26.0039 27.738C25.61 27.7506 25.4307 27.6026 25.3418 27.2587C25.3224 27.1834 25.2879 27.112 25.2672 27.0369C25.151 26.6164 24.8766 26.1543 24.9707 25.787C25.0518 25.4704 25.5499 25.2569 25.8699 25.0058C27.8441 23.4574 28.8155 21.4176 28.8496 18.9212C28.8601 18.1582 28.8513 17.3948 28.8513 16.645C30.5445 16.1454 31.1939 15.4432 31.1239 14.2211C31.0601 13.1048 30.2761 12.3661 28.8496 12.1295C28.8496 11.8505 28.8636 11.5578 28.8471 11.2667C28.7933 10.3218 28.0208 9.79075 27.1421 10.1406C23.359 11.647 19.5781 11.4976 15.7894 10.1766C15.5987 10.1101 15.4038 10.041 15.2053 10.0142C14.487 9.91724 13.9051 10.3855 13.853 11.108C13.8286 11.4469 13.8488 11.789 13.8488 12.1509C13.0584 12.1975 12.4299 12.4588 11.9639 13.0981Z" fill="#D6E8FF"/>
<path id="Vector_3" d="M24.5846 46.6347C24.6337 46.6721 24.6632 46.6871 24.6823 46.7106C24.6999 46.7323 24.7063 46.763 24.7346 46.8299C24.5722 46.8385 24.4247 46.8531 24.2772 46.8531C18.6056 46.8542 12.9339 46.8547 7.26228 46.8535C5.9931 46.8532 5.46422 46.3267 5.46326 45.0605C5.46111 42.2169 5.4491 39.3731 5.46618 36.5296C5.49017 32.5368 8.0999 29.4561 12.0386 28.946C13.5765 28.7469 15.158 28.8736 16.7193 28.8871C16.8427 28.8881 17.0227 29.1472 17.0768 29.3179C17.6146 31.0136 19.1544 32.1292 21.0645 32.1815C23.0924 32.2371 24.758 31.2468 25.3233 29.5337C25.5174 28.9457 25.7974 28.8311 26.3454 28.8542C27.8108 28.9161 29.2807 28.8877 30.7438 28.9777C31.3056 29.0123 31.8644 29.2406 32.405 29.4349C33.0313 29.6599 33.0735 29.837 32.7554 30.5231C32.0798 30.0392 31.34 29.7309 30.5003 29.7193C29.5017 29.7056 28.6137 30.0083 27.9084 30.7238C26.3399 32.3145 24.7366 33.8755 23.2437 35.5351C20.2459 38.8678 20.874 43.9151 24.5846 46.6347Z" fill="#93C1FF"/>
<path id="Vector_4" d="M24.9338 24.2818C22.8102 25.6317 20.623 25.8119 18.4192 24.6598C16.2045 23.502 15.0512 21.6141 14.9775 19.1026C14.9496 18.1506 14.9743 17.1971 14.9691 16.2443C14.9656 15.6045 14.8056 15.4535 14.1608 15.4436C13.9585 15.4405 13.7525 15.4409 13.5552 15.4032C13.0073 15.2985 12.6433 14.8225 12.6865 14.2947C12.7309 13.7515 13.1426 13.3513 13.6997 13.3098C14.9664 13.2155 14.967 13.2155 14.9864 11.9236C14.9902 11.6756 14.987 11.4275 14.987 11.0635C19.2306 12.6314 23.4369 12.8488 27.7196 11.1475C27.7196 11.6817 27.7129 12.1278 27.7213 12.5736C27.7316 13.1202 27.9123 13.2943 28.4575 13.3051C28.6448 13.3089 28.8333 13.2983 29.0195 13.3147C29.5493 13.3611 29.9509 13.7667 29.9943 14.2857C30.0373 14.8007 29.7006 15.2689 29.1805 15.3895C29.0004 15.4313 28.8099 15.4403 28.6238 15.4428C27.8108 15.4539 27.7246 15.5421 27.72 16.3747C27.7146 17.3741 27.7437 18.3757 27.6889 19.3726C27.5757 21.4357 26.634 23.0588 24.9338 24.2818ZM20.4925 21.7733C20.3005 21.6167 20.0944 21.4742 19.9199 21.3001C19.6451 21.026 19.3464 20.9514 19.0557 21.2206C18.7788 21.477 18.8441 21.771 19.0696 22.053C20.1861 23.4489 22.449 23.463 23.5901 22.0809C23.8289 21.7917 23.9248 21.4902 23.6179 21.215C23.3213 20.9491 23.0185 21.0267 22.7588 21.3135C22.1417 21.9951 21.4046 22.1538 20.4925 21.7733ZM24.5619 15.6233C24.6587 15.2226 24.5314 14.9304 24.1095 14.8673C23.7708 14.8167 23.5063 15.0076 23.5077 15.3511C23.5085 15.5414 23.6543 15.8053 23.8156 15.904C24.0756 16.0632 24.3548 15.9643 24.5619 15.6233ZM18.6847 14.8659C18.3188 14.8697 18.0459 15.0452 18.1041 15.4143C18.1355 15.614 18.3794 15.8985 18.5585 15.9238C18.7419 15.9496 19.0596 15.7515 19.147 15.5692C19.3054 15.2387 19.1087 14.9826 18.6847 14.8659Z" fill="#FEFEFF"/>
<path id="Vector_5" d="M30.6458 37.0717C30.7265 38.103 30.6905 39.0831 30.3715 40.0307C30.3225 40.1762 30.1701 40.3685 30.0387 40.3926C27.468 40.8643 25.4884 42.1998 24.0888 44.4031C24.0656 44.4396 24.0229 44.4636 23.957 44.522C22.8295 43.1195 22.3492 41.5383 22.536 39.7688C22.6721 38.479 23.151 37.3075 24.0337 36.3515C25.3153 34.9636 26.6429 33.6182 27.9805 32.2238C29.5022 33.4987 30.3667 35.0981 30.6458 37.0717Z" fill="#FEFEFF"/>
<path id="Vector_6" d="M28.8823 31.4127C29.883 30.6417 31.1573 30.6695 32.083 31.4615C32.568 31.8764 32.9602 32.3273 33.1886 32.9727C33.7451 34.5453 34.9263 35.4621 36.4893 36.0384C38.3219 36.7142 39.0122 38.7386 37.9534 40.162C37.4919 40.7822 36.9046 41.3089 36.3553 41.8986C34.8836 40.8684 33.2852 40.3276 31.5923 40.2902C31.6647 39.4006 31.8007 38.5498 31.7904 37.7007C31.762 35.3714 30.8394 33.4108 29.1891 31.7816C29.0792 31.6731 28.9765 31.5574 28.8823 31.4127Z" fill="#D5E8FF"/>
<path id="Vector_7" d="M34.2546 29.3939C34.325 29.2317 34.3601 29.0886 34.4394 28.9767C34.7577 28.5276 34.7388 28.1442 34.3361 27.7324C34.0319 27.4215 34.0784 26.9925 34.3506 26.7185C34.6152 26.4522 35.0612 26.4192 35.3676 26.7027C36.7194 27.9532 38.3006 28.6186 40.1476 28.6381C40.1919 28.6386 40.2358 28.6638 40.2238 28.6601C40.3828 29.4051 40.4926 30.1297 40.6972 30.8264C40.969 31.7519 41.4971 32.5423 42.1569 33.2477C42.3224 33.4246 42.4737 33.6374 42.5591 33.8614C42.6836 34.188 42.5757 34.5343 42.2634 34.6576C42.0307 34.7495 41.6189 34.7564 41.4658 34.6118C41.0082 34.1798 40.6398 34.2586 40.1354 34.5325C37.7796 35.8117 34.9868 34.8227 34.1757 32.4533C33.8284 31.4387 33.887 30.429 34.2546 29.3939ZM36.6001 32.7295C36.3524 32.494 36.1141 32.2476 35.8543 32.0263C35.6055 31.8144 35.3307 31.8227 35.1021 32.0574C34.8749 32.2906 34.8633 32.5805 35.0816 32.8124C35.4752 33.2303 35.8886 33.632 36.3192 34.0115C36.5584 34.2223 36.848 34.1984 37.0721 33.9609C37.2973 33.7221 37.2815 33.4496 37.0769 33.2031C36.9487 33.0485 36.7918 32.9177 36.6001 32.7295ZM37.5779 29.2272C37.3548 28.9701 37.0733 28.8125 36.7687 29.0181C36.62 29.1185 36.4564 29.4099 36.5038 29.5411C36.5886 29.7761 36.7954 30.0145 37.015 30.1353C37.1445 30.2064 37.5037 30.1115 37.5693 29.9892C37.6715 29.7986 37.6119 29.5213 37.5779 29.2272ZM40.1264 31.8563C40.0006 31.6849 39.9079 31.4314 39.7402 31.3638C39.5477 31.2861 39.2285 31.295 39.0769 31.412C38.9442 31.5146 38.86 31.8926 38.9457 32.0179C39.0933 32.2334 39.3764 32.4438 39.6272 32.4784C39.9233 32.5192 40.1262 32.2657 40.1264 31.8563Z" fill="#FCFDFF"/>
<path id="Vector_8" d="M28.0067 46.736C26.825 46.5355 25.8053 46.0632 24.8593 45.4172C26.8013 41.4234 32.1245 40.2371 35.591 42.7797C34.6845 43.659 33.8248 44.567 32.8867 45.3852C31.5033 46.5918 29.86 47.0021 28.0067 46.736Z" fill="#FDFEFF"/>
<path id="Vector_9" d="M40.6716 24.4665C41.672 24.6568 42.5093 25.0785 43.1969 25.7806C43.4586 26.0477 43.4543 26.3466 43.2288 26.623C43.044 26.8496 42.8113 26.9901 42.5186 26.7757C42.5349 26.7167 42.5334 26.6771 42.5519 26.6618C42.958 26.3266 43.0377 26.0535 42.8102 25.7641C42.5869 25.4801 42.1731 25.4837 41.8062 25.773C41.378 26.1105 41.2351 26.6995 41.4577 27.2096C41.696 27.7558 42.3611 28.1454 42.9621 27.9862C43.3958 27.8713 43.7909 27.6105 44.212 27.4106C44.9878 28.7234 44.5322 31.4437 43.2489 32.7289C42.0741 31.6425 41.4966 30.2927 41.448 28.706C41.411 27.5006 41.4154 27.5004 40.1969 27.4996C38.5947 27.4986 37.2305 26.9366 36.1284 25.8028C37.4467 24.7119 38.9199 24.1997 40.6716 24.4665Z" fill="#D4E7FF"/>
<path id="Vector_10" d="M24.3064 29.0703C23.7475 30.4474 22.5862 31.132 20.9985 31.0474C19.6079 30.9733 18.5191 30.1601 18.1581 28.93C18.0364 28.5156 18.0218 28.1213 18.1961 27.7028C18.4101 27.1892 18.5577 26.6479 18.7488 26.0743C20.4083 26.6472 22.0777 26.6765 23.7651 26.1224C24.0036 26.818 24.271 27.4817 24.4465 28.169C24.5131 28.43 24.368 28.7451 24.3064 29.0703Z" fill="#FDFEFF"/>
<path id="Vector_11" d="M34.1976 45.729C35.1006 44.7997 35.9801 43.8937 36.8605 42.9886C36.8811 42.9674 36.9127 42.9568 36.9752 42.9202C36.9986 43.0092 37.0364 43.0868 37.0368 43.1645C37.0405 43.9284 37.0506 44.6925 37.0337 45.4561C37.0186 46.1371 36.5619 46.7423 35.891 46.7923C34.9382 46.8634 33.976 46.8103 32.9602 46.8103C33.3902 46.4356 33.7822 46.094 34.1976 45.729Z" fill="#91BFFF"/>
<path id="Vector_12" d="M20.5238 21.7931C21.4046 22.1538 22.1418 21.9951 22.7589 21.3135C23.0186 21.0267 23.3214 20.9491 23.618 21.215C23.9249 21.4902 23.829 21.7918 23.5902 22.0809C22.4491 23.463 20.1862 23.4489 19.0697 22.053C18.8442 21.771 18.7789 21.4771 19.0558 21.2206C19.3464 20.9514 19.6452 21.026 19.9199 21.3001C20.0945 21.4742 20.3006 21.6167 20.5238 21.7931Z" fill="#1773FF"/>
<path id="Vector_13" d="M24.5482 15.6557C24.3548 15.9643 24.0756 16.0632 23.8156 15.904C23.6543 15.8053 23.5085 15.5414 23.5077 15.3511C23.5063 15.0075 23.7708 14.8167 24.1095 14.8673C24.5313 14.9304 24.6587 15.2226 24.5482 15.6557Z" fill="#1A74FF"/>
<path id="Vector_14" d="M18.7184 14.8722C19.1087 14.9826 19.3055 15.2388 19.147 15.5692C19.0596 15.7515 18.7419 15.9496 18.5586 15.9238C18.3794 15.8986 18.1356 15.614 18.1041 15.4143C18.046 15.0452 18.3189 14.8698 18.7184 14.8722Z" fill="#1974FF"/>
<path id="Vector_15" d="M36.6239 32.7529C36.7918 32.9177 36.9486 33.0486 37.0769 33.2032C37.2815 33.4497 37.2973 33.7221 37.072 33.9609C36.848 34.1985 36.5584 34.2223 36.3192 34.0115C35.8886 33.632 35.4752 33.2303 35.0816 32.8124C34.8633 32.5805 34.8749 32.2907 35.1021 32.0575C35.3307 31.8228 35.6055 31.8144 35.8543 32.0263C36.1141 32.2476 36.3524 32.4941 36.6239 32.7529Z" fill="#1672FF"/>
<path id="Vector_16" d="M37.5995 29.2539C37.612 29.5213 37.6715 29.7986 37.5693 29.9892C37.5037 30.1115 37.1445 30.2065 37.0151 30.1353C36.7954 30.0145 36.5887 29.7761 36.5038 29.5411C36.4564 29.4099 36.62 29.1185 36.7688 29.0181C37.0734 28.8125 37.3548 28.9701 37.5995 29.2539Z" fill="#1974FF"/>
<path id="Vector_17" d="M40.1288 31.8927C40.1262 32.2657 39.9233 32.5192 39.6272 32.4784C39.3764 32.4438 39.0933 32.2334 38.9457 32.0179C38.86 31.8926 38.9442 31.5146 39.0769 31.4121C39.2285 31.295 39.5477 31.2861 39.7402 31.3638C39.9079 31.4314 40.0006 31.6849 40.1288 31.8927Z" fill="#1974FF"/>
</g>
<defs>
<clipPath id="clip0_80_94">
<rect width="48" height="48" fill="white"/>
</clipPath>
</defs>
</svg>
