<svg width="32" height="32" viewBox="0 0 32 32" fill="none" xmlns="http://www.w3.org/2000/svg">
<g id="newspaper-svgrepo-com 2">
<path id="Vector" fill-rule="evenodd" clip-rule="evenodd" d="M28.3223 23.7387C28.083 26.7114 27.3657 28.1703 25.1216 27.9842C23.6286 27.8603 12.0312 26.567 5.69254 25.86C3.41608 25.6064 1.83669 24.3727 2.01349 22.4437C2.19367 20.4791 3.62075 4.13485 3.62075 4.13485L4.97548 4L7.277 5.45101L9.82824 4.39133L12.2111 5.96284L14.9828 5.02309L17.4189 6.39865L20.1762 5.42624L22.1008 6.75394L25.1306 5.94595L26.3212 6.86036C26.3212 6.86036 24.6914 22.3229 24.5304 25.0363C24.4209 26.8797 26.2806 26.4983 26.4279 25.1371C26.654 23.047 27.9394 6.94651 27.9394 6.94651L29.5878 7.04026C29.5878 7.04026 28.5174 21.3077 28.3223 23.7387ZM21.9076 8.54504L19.8462 7.51942L16.9935 8.16385L14.7356 7.04448L11.9963 7.66582L9.6565 6.61571L6.90988 7.44088L5.2359 6.23339C5.2359 6.23339 3.87638 20.5861 3.75842 21.8623C3.64046 23.1379 4.48561 24.0242 5.93494 24.1869C11.3589 24.7967 22.4718 26.0467 22.4718 26.0467L24.295 8.17286L21.9076 8.54504ZM16.8234 12.3195L16.9636 10.4592L21.9121 10.9288L21.7539 12.7815L16.8234 12.3195ZM20.8071 23.8637L15.9977 23.2981L16.1199 21.6756L20.947 22.2274L20.8071 23.8637ZM5.93522 18.7249L6.52869 9.46903L15.5886 10.3288L14.6999 19.6472L5.93522 18.7249ZM14.3699 23.1069L5.71929 22.0898L5.82148 20.4986L14.5236 21.4935L14.3699 23.1069ZM16.3843 18.1593L21.2531 18.6461L21.1098 20.3218L16.2598 19.8116L16.3843 18.1593ZM16.677 14.268L21.587 14.7356L21.4282 16.5974L16.5388 16.1086L16.677 14.268Z" fill="black"/>
</g>
</svg>
