<svg width="48" height="48" viewBox="0 0 48 48" fill="none" xmlns="http://www.w3.org/2000/svg">
<g id="Orthopedic specialist">
<path id="Vector" d="M30.4 28C28.5091 27.4909 26.9818 29.1636 24.3636 29.1636C21.6 29.1636 20.5091 27.7818 19.2727 27.7818C17.4545 27.7818 16.9454 29.4545 17.3091 31.4182C17.3091 31.4909 18.3273 39.7091 16.7273 45.7455C16.6545 45.9636 16.7273 46.1818 16.8727 46.3273C17.0182 46.4727 17.2364 46.6182 17.4545 46.6182H27.8545C28.2182 46.6182 28.5091 46.4 28.5818 46.0364C28.9454 43.2727 30.1818 35.6364 31.2 34.0364C32.6545 31.6364 33.0909 28.7273 30.4 28ZM28 34.6182C25.3818 36.0727 22.4727 35.7818 20.6545 34.2545C20.3636 34.0364 20.2909 33.5273 20.5818 33.2364C20.8 32.9455 21.3091 32.8727 21.6 33.1636C21.7454 33.2364 24.1454 35.2 27.3454 33.3818C27.7091 33.1636 28.1454 33.3091 28.2909 33.6727C28.4364 33.9636 28.2909 34.4 28 34.6182ZM34.9091 26.1818C34.5454 26.4 34.1091 26.2545 33.9636 25.9636C33.7454 25.6 33.8909 25.2364 34.1818 25.0182C40.4364 21.1636 39.7818 15.1273 34.2545 12.8C33.3818 12.4364 33.9636 11.1273 34.8364 11.4909C41.8182 14.6909 41.7454 21.8909 34.9091 26.1818Z" fill="#34A853"/>
<path id="Vector_2" d="M30.6182 12.2182C27.7819 8.94545 24.5819 1.23636 24.5091 1.16363C24.4364 0.872719 24.2182 0.727264 23.9273 0.727264H11.8546C11.5637 0.727264 11.2728 0.872719 11.2001 1.16363C11.1273 1.45454 11.2001 1.74545 11.3455 1.96363C13.4546 3.92726 14.9819 9.01817 14.9819 9.01817C15.3455 10.1091 16.8001 13.3091 16.5091 16.8727C16.2182 19.8545 17.1637 22.7636 18.9819 24.7273C23.491 29.5273 31.491 27.8545 33.2364 21.8182C34.0364 18.6909 33.091 15.0545 30.6182 12.2182ZM27.2728 23.0545C26.9819 23.3454 26.5455 23.2727 26.2546 22.9818C25.9637 22.6909 26.0364 22.2545 26.3273 21.9636C27.2728 21.0909 27.7091 20.2182 27.7091 19.2727C27.7091 17.6727 26.3273 16.3636 26.3273 16.2909C26.0364 16 26.0364 15.5636 26.2546 15.2727C26.5455 14.9818 26.9819 14.9818 27.2728 15.2C27.3455 15.2727 29.091 16.9454 29.091 19.2C29.1637 20.7273 28.5091 21.9636 27.2728 23.0545ZM15.5637 36.1454V46.5454C15.5637 46.9091 15.2728 47.2727 14.8364 47.2727H8.6546C8.36369 47.2727 8.07278 47.1273 8.00005 46.8364C7.92732 46.5454 8.00005 46.2545 8.21823 46.0364C8.21823 46.0364 12.1455 42.3273 14.2546 35.9273C14.3273 35.5636 14.691 35.4182 15.0546 35.4182C15.2728 35.5636 15.5637 35.8545 15.5637 36.1454Z" fill="#34A853"/>
</g>
</svg>
