<svg width="32" height="32" viewBox="0 0 32 32" fill="none" xmlns="http://www.w3.org/2000/svg">
<g id="police-car 3">
<path id="Vector" d="M17.9776 4.656C17.9712 3.5072 17.104 2.624 15.9872 2.6176C14.8352 2.6112 13.9808 3.4656 13.9744 4.6432C13.968 5.1648 13.9712 5.6896 13.9744 6.2144C13.9744 6.5472 14.0992 6.6688 14.432 6.6688H15.9648V6.672H17.4976C17.8432 6.672 17.9808 6.5312 17.9808 6.1888C17.9808 5.6768 17.9808 5.168 17.9776 4.656ZM16.56 3.6992C15.968 3.7408 15.5488 4.1728 15.5392 4.7712C15.5296 5.1488 15.5392 5.5264 15.5392 5.9232H14.6912C14.7072 5.36 14.6656 4.8064 14.7648 4.2784C14.9184 3.4688 15.9328 3.0848 16.6336 3.5232C16.6752 3.5488 16.7136 3.5936 16.7904 3.6672C16.6784 3.68 16.6176 3.6928 16.56 3.6992ZM13.7376 2.9696C13.9936 2.7296 14.2336 2.5056 14.4864 2.2688C14.1568 1.9392 13.824 1.5872 13.472 1.2608C13.28 1.0848 12.9632 1.12 12.7872 1.2992C12.6048 1.488 12.576 1.792 12.7584 1.984C13.0752 2.3296 13.4144 2.6464 13.7376 2.9696ZM18.7328 5.0944C19.2 5.0944 19.6512 5.1072 20.1024 5.088C20.3936 5.0752 20.5792 4.8512 20.5792 4.5728C20.5824 4.3136 20.3936 4.0768 20.1184 4.064C19.6448 4.0448 19.1744 4.0576 18.6816 4.0576C18.7008 4.4224 18.7168 4.7456 18.7328 5.0944ZM19.2512 2.0416C19.4368 1.8432 19.3984 1.5392 19.2032 1.36C19.0048 1.1776 18.7136 1.152 18.5184 1.3376C18.1792 1.6608 17.8624 2 17.5936 2.2784C17.8304 2.5248 18.0576 2.7584 18.2848 2.9984C18.5792 2.7072 18.928 2.3872 19.2512 2.0416ZM16.5184 1.8912C16.5184 1.4336 16.528 0.972802 16.5152 0.512002C16.5056 0.243202 16.2816 0.0416015 16.0224 0.0352015C15.7728 0.0256015 15.5104 0.214401 15.5008 0.460802C15.4816 0.937602 15.4944 1.4208 15.4944 1.8976L16.5184 1.8912ZM11.8112 5.072C12.2752 5.0944 12.7392 5.0784 13.2448 5.0784V4.0544C12.88 4.0544 12.5184 4.0512 12.16 4.0544C12.032 4.0544 11.8976 4.0608 11.776 4.0896C11.552 4.1504 11.4144 4.3552 11.4208 4.592C11.4304 4.8352 11.5808 5.0592 11.8112 5.072ZM28.4608 30.3456C28.4608 30.7968 28.304 31.1808 27.9872 31.4976C27.6704 31.8144 27.2864 31.9712 26.8352 31.9712C26.384 31.9712 26 31.8144 25.6832 31.4976C25.3664 31.1808 25.2096 30.7968 25.2096 30.3456V27.6352H28.4608V30.3456ZM6.7904 30.3456C6.7904 30.7968 6.6336 31.1808 6.3168 31.4976C6 31.8144 5.616 31.9712 5.1648 31.9712C4.7136 31.9712 4.3296 31.8144 4.0128 31.4976C3.696 31.1808 3.5392 30.7968 3.5392 30.3456V27.6352H6.7904V30.3456ZM26.2272 19.0368C25.6416 19.0368 25.1328 19.2448 24.704 19.664C24.2752 20.0832 24.0608 20.5952 24.0608 21.2032C24.0608 21.7888 24.2752 22.2976 24.704 22.7264C25.1328 23.1552 25.6416 23.3696 26.2272 23.3696C26.8352 23.3696 27.3504 23.1552 27.7664 22.7264C28.1856 22.2976 28.3936 21.7888 28.3936 21.2032C28.3936 20.5952 28.1856 20.08 27.7664 19.664C27.3504 19.2448 26.8352 19.0368 26.2272 19.0368ZM24.2272 10.2976C24.0928 9.9136 23.952 9.6384 23.8048 9.4688C23.6576 9.2992 23.4368 9.216 23.1456 9.216H16.5408V10.3008H17.0816C17.2384 10.3008 17.3696 10.352 17.472 10.4544C17.5744 10.5568 17.6256 10.6848 17.6256 10.8448C17.6256 11.0016 17.5744 11.1328 17.472 11.2352C17.3696 11.3376 17.2416 11.3888 17.0816 11.3888H14.9152C14.7584 11.3888 14.6272 11.3376 14.5248 11.2352C14.4224 11.1328 14.3712 11.0048 14.3712 10.8448C14.3712 10.688 14.4224 10.5568 14.5248 10.4544C14.6272 10.352 14.7552 10.3008 14.9152 10.3008H15.456V9.216H8.8544C8.56 9.216 8.3424 9.2768 8.1952 9.4016C8.048 9.5264 7.9072 9.824 7.7728 10.2976C7.7056 10.5248 7.5584 10.992 7.3312 11.7024C7.104 12.4128 6.8736 13.1456 6.6368 13.904C6.4 14.6592 6.1856 15.3312 5.9936 15.92C5.8016 16.5056 5.7056 16.8 5.7056 16.8H18.1344C18.1344 16.0544 18.4 15.3888 18.9312 14.8032C19.4624 14.2176 20.0992 13.9232 20.8448 13.9232C21.568 13.9232 22.1952 14.2176 22.7232 14.8032C23.2544 15.3888 23.52 16.0576 23.52 16.8H26.2976C26.2976 16.8 26.2016 16.496 26.0096 15.8848C25.8176 15.2768 25.6032 14.5856 25.3664 13.8208C25.1296 13.0528 24.8992 12.32 24.672 11.6192C24.4416 10.9184 24.2976 10.48 24.2272 10.2976ZM3.6064 21.136C3.6064 21.7216 3.8144 22.2304 4.2336 22.6592C4.6528 23.088 5.1648 23.3024 5.7728 23.3024C6.3584 23.3024 6.8672 23.088 7.296 22.6592C7.7248 22.2304 7.9392 21.7216 7.9392 21.136C7.9392 20.5504 7.7248 20.0416 7.296 19.6128C6.8672 19.184 6.3584 18.9696 5.7728 18.9696C5.1648 18.9696 4.6496 19.184 4.2336 19.6128C3.8144 20.0384 3.6064 20.5472 3.6064 21.136ZM8.9568 20.0512H23.0432V18.9664H8.9568V20.0512ZM8.9568 22.2176H23.0432V21.1328H8.9568V22.2176ZM23.0432 16.8C23.0432 16.2144 22.8288 15.6832 22.4 15.2096C21.9712 14.736 21.4624 14.4992 20.8768 14.4992C20.2912 14.4992 19.7824 14.736 19.3536 15.2096C18.9248 15.6832 18.7104 16.2144 18.7104 16.8C18.7104 16.8224 19.4336 16.8352 20.8768 16.8352C22.32 16.8352 23.0432 16.8224 23.0432 16.8ZM8.9568 24.384H23.0432V23.2992H8.9568V24.384ZM28.4608 26.5536H3.5392C2.9536 26.5536 2.4448 26.3392 2.016 25.9104C1.5872 25.4816 1.3728 24.9728 1.3728 24.3872V18.9664C1.3728 18.3808 1.5872 17.872 2.016 17.4432C2.4448 17.0144 2.9536 16.8 3.5392 16.8H4.624C4.624 16.8 4.7072 16.5408 4.8768 16.0224C5.0464 15.504 5.248 14.8896 5.4848 14.176C5.7216 13.4656 5.952 12.7424 6.1792 12.0096C6.4064 11.2768 6.5728 10.7072 6.688 10.3008C6.9376 9.488 7.2128 8.9248 7.5168 8.608C7.8208 8.2912 8.2688 8.1344 8.8544 8.1344H23.1456C23.7312 8.1344 24.16 8.2656 24.432 8.5248C24.704 8.784 24.9952 9.376 25.312 10.304C25.6064 11.2288 26.0224 12.544 26.5664 14.2496C27.1072 15.9552 27.3792 16.8064 27.3792 16.8064H28.464C29.0496 16.8064 29.5584 17.0208 29.9872 17.4496C30.416 17.8784 30.6304 18.3872 30.6304 18.9728V24.384C30.6304 24.9696 30.416 25.4784 29.9872 25.9072C29.5552 26.3392 29.0496 26.5536 28.4608 26.5536Z" fill="black"/>
</g>
</svg>
